<?xml version="1.0" encoding="UTF-8"?>
<!DOCTYPE svg PUBLIC "-//W3C//DTD SVG 1.1//EN" "http://www.w3.org/Graphics/SVG/1.1/DTD/svg11.dtd">
<svg version="1.2" width="41.83mm" height="41.83mm" viewBox="2990 642 4183 4183" preserveAspectRatio="xMidYMid" fill-rule="evenodd" stroke-width="28.222" stroke-linejoin="round" xmlns="http://www.w3.org/2000/svg" xmlns:ooo="http://xml.openoffice.org/svg/export" xmlns:xlink="http://www.w3.org/1999/xlink" xmlns:presentation="http://sun.com/xmlns/staroffice/presentation" xmlns:smil="http://www.w3.org/2001/SMIL20/" xmlns:anim="urn:oasis:names:tc:opendocument:xmlns:animation:1.0" xmlns:svg="urn:oasis:names:tc:opendocument:xmlns:svg-compatible:1.0" xml:space="preserve">
 <defs class="EmbeddedBulletChars">
  <g id="bullet-char-template-57356" transform="scale(0.00048828125,-0.00048828125)">
   <path d="M 580,1141 L 1163,571 580,0 -4,571 580,1141 Z"/>
  </g>
  <g id="bullet-char-template-57354" transform="scale(0.00048828125,-0.00048828125)">
   <path d="M 8,1128 L 1137,1128 1137,0 8,0 8,1128 Z"/>
  </g>
  <g id="bullet-char-template-10146" transform="scale(0.00048828125,-0.00048828125)">
   <path d="M 174,0 L 602,739 174,1481 1456,739 174,0 Z M 1358,739 L 309,1346 659,739 1358,739 Z"/>
  </g>
  <g id="bullet-char-template-10132" transform="scale(0.00048828125,-0.00048828125)">
   <path d="M 2015,739 L 1276,0 717,0 1260,543 174,543 174,936 1260,936 717,1481 1274,1481 2015,739 Z"/>
  </g>
  <g id="bullet-char-template-10007" transform="scale(0.00048828125,-0.00048828125)">
   <path d="M 0,-2 C -7,14 -16,27 -25,37 L 356,567 C 262,823 215,952 215,954 215,979 228,992 255,992 264,992 276,990 289,987 310,991 331,999 354,1012 L 381,999 492,748 772,1049 836,1024 860,1049 C 881,1039 901,1025 922,1006 886,937 835,863 770,784 769,783 710,716 594,584 L 774,223 C 774,196 753,168 711,139 L 727,119 C 717,90 699,76 672,76 641,76 570,178 457,381 L 164,-76 C 142,-110 111,-127 72,-127 30,-127 9,-110 8,-76 1,-67 -2,-52 -2,-32 -2,-23 -1,-13 0,-2 Z"/>
  </g>
  <g id="bullet-char-template-10004" transform="scale(0.00048828125,-0.00048828125)">
   <path d="M 285,-33 C 182,-33 111,30 74,156 52,228 41,333 41,471 41,549 55,616 82,672 116,743 169,778 240,778 293,778 328,747 346,684 L 369,508 C 377,444 397,411 428,410 L 1163,1116 C 1174,1127 1196,1133 1229,1133 1271,1133 1292,1118 1292,1087 L 1292,965 C 1292,929 1282,901 1262,881 L 442,47 C 390,-6 338,-33 285,-33 Z"/>
  </g>
  <g id="bullet-char-template-9679" transform="scale(0.00048828125,-0.00048828125)">
   <path d="M 813,0 C 632,0 489,54 383,161 276,268 223,411 223,592 223,773 276,916 383,1023 489,1130 632,1184 813,1184 992,1184 1136,1130 1245,1023 1353,916 1407,772 1407,592 1407,412 1353,268 1245,161 1136,54 992,0 813,0 Z"/>
  </g>
  <g id="bullet-char-template-8226" transform="scale(0.00048828125,-0.00048828125)">
   <path d="M 346,457 C 273,457 209,483 155,535 101,586 74,649 74,723 74,796 101,859 155,911 209,963 273,989 346,989 419,989 480,963 531,910 582,859 608,796 608,723 608,648 583,586 532,535 482,483 420,457 346,457 Z"/>
  </g>
  <g id="bullet-char-template-8211" transform="scale(0.00048828125,-0.00048828125)">
   <path d="M -4,459 L 1135,459 1135,606 -4,606 -4,459 Z"/>
  </g>
  <g id="bullet-char-template-61548" transform="scale(0.00048828125,-0.00048828125)">
   <path d="M 173,740 C 173,903 231,1043 346,1159 462,1274 601,1332 765,1332 928,1332 1067,1274 1183,1159 1299,1043 1357,903 1357,740 1357,577 1299,437 1183,322 1067,206 928,148 765,148 601,148 462,206 346,322 231,437 173,577 173,740 Z"/>
  </g>
 </defs>
 <g class="Page">
  <g class="Group">
   <g class="com.sun.star.drawing.ClosedBezierShape">
    <g id="id3">
     <rect class="BoundingBox" stroke="none" fill="none" x="2990" y="642" width="4183" height="4183"/>
     <path fill="rgb(69,16,84)" stroke="none" d="M 5081,642 C 6236,642 7172,1577 7172,2733 7172,3888 6236,4824 5081,4824 3925,4824 2990,3888 2990,2733 2990,1577 3925,642 5081,642 Z"/>
    </g>
   </g>
   <g class="com.sun.star.drawing.ClosedBezierShape">
    <g id="id4">
     <rect class="BoundingBox" stroke="none" fill="none" x="3080" y="731" width="4003" height="4004"/>
     <path fill="rgb(255,255,255)" stroke="none" d="M 5081,732 C 6187,732 7082,1627 7082,2733 7082,3839 6187,4734 5081,4734 3975,4734 3080,3839 3080,2733 3080,1627 3975,732 5081,732 Z"/>
    </g>
   </g>
   <g class="com.sun.star.drawing.ClosedBezierShape">
    <g id="id5">
     <rect class="BoundingBox" stroke="none" fill="none" x="3159" y="811" width="3844" height="3844"/>
     <path fill="rgb(19,21,16)" stroke="none" d="M 5080,811 C 6142,811 7002,1671 7002,2732 7002,3794 6142,4654 5080,4654 4019,4654 3159,3794 3159,2732 3159,1671 4019,811 5080,811 Z"/>
    </g>
   </g>
   <g class="Group">
    <g class="com.sun.star.drawing.ClosedBezierShape">
     <g id="id6">
      <rect class="BoundingBox" stroke="none" fill="none" x="4425" y="1909" width="1350" height="1425"/>
      <path fill="rgb(255,255,255)" stroke="none" d="M 5771,2675 C 5788,2548 5732,2352 5670,2242 5610,2137 5514,2046 5396,1990 5142,1868 4823,1872 4622,2089 4455,2272 4358,2590 4480,2909 4567,3133 4792,3364 5096,3329 5378,3297 5577,3089 5638,2823 5717,2483 5506,2222 5284,2139 5146,2088 4987,2100 4872,2176 4783,2234 4701,2364 4678,2514 4653,2683 4709,2845 4794,2920 5050,3148 5385,2959 5404,2686 5420,2445 5282,2447 5274,2550 5266,2636 5354,2727 5217,2858 5108,2962 4818,2922 4772,2623 4720,2300 5068,2122 5345,2302 5616,2478 5608,2789 5427,3032 5171,3376 4618,3228 4538,2734 4511,2566 4533,2392 4602,2275 4831,1882 5413,1979 5631,2281 5668,2333 5695,2391 5717,2461 5738,2530 5749,2608 5771,2675 Z"/>
     </g>
    </g>
    <g class="com.sun.star.drawing.ClosedBezierShape">
     <g id="id7">
      <rect class="BoundingBox" stroke="none" fill="none" x="3429" y="2037" width="505" height="1092"/>
      <path fill="rgb(255,255,255)" stroke="none" d="M 3534,2360 C 3546,2376 3595,2384 3618,2391 3632,2396 3646,2401 3660,2409 3686,2423 3689,2419 3696,2432 3677,2460 3606,2432 3501,2482 3470,2497 3444,2517 3434,2540 3421,2572 3434,2625 3451,2646 3500,2641 3439,2587 3488,2545 3519,2519 3560,2535 3595,2550 3584,2586 3545,2556 3502,2678 3492,2706 3479,2703 3477,2725 3520,2723 3531,2656 3558,2677 3562,2683 3562,2678 3560,2687 L 3543,2723 C 3537,2740 3531,2757 3528,2778 3520,2822 3524,2869 3533,2911 3549,2981 3545,2953 3525,3018 3520,3034 3513,3057 3514,3077 3515,3123 3520,3123 3533,3127 3533,3097 3534,3068 3541,3039 3549,3005 3560,2998 3570,2975 3579,2953 3569,2914 3568,2888 3567,2858 3569,2827 3573,2798 3581,2744 3601,2701 3630,2672 3650,2650 3685,2635 3715,2620 3730,2612 3736,2611 3744,2598 L 3601,2601 C 3608,2572 3642,2555 3667,2545 3651,2533 3627,2536 3615,2522 3627,2504 3630,2515 3648,2506 3662,2498 3661,2483 3674,2475 3698,2461 3750,2479 3775,2479 3792,2468 3779,2466 3800,2459 3812,2456 3872,2449 3857,2389 3851,2367 3831,2340 3826,2387 3823,2420 3815,2433 3779,2429 3760,2427 3732,2414 3717,2405 3687,2388 3703,2351 3709,2343 3716,2335 3751,2315 3762,2310 3833,2280 3780,2328 3882,2256 3891,2249 3930,2228 3932,2219 3944,2157 3693,2320 3635,2063 3629,2038 3634,2036 3613,2037 3593,2072 3638,2192 3643,2234 3655,2346 3556,2335 3534,2360 Z"/>
     </g>
    </g>
    <g class="com.sun.star.drawing.ClosedBezierShape">
     <g id="id8">
      <rect class="BoundingBox" stroke="none" fill="none" x="6056" y="3604" width="332" height="693"/>
      <path fill="rgb(255,255,255)" stroke="none" d="M 6148,3813 C 6131,3788 6158,3739 6173,3729 6225,3691 6320,3743 6258,3920 6234,3989 6209,4023 6211,4107 6212,4159 6221,4274 6251,4295 6266,4250 6240,4193 6282,4078 6331,3944 6432,3864 6363,3716 6338,3662 6305,3609 6239,3604 6084,3593 6011,3771 6085,3877 6131,3942 6219,3942 6242,3898 6276,3833 6250,3746 6164,3772 6153,3808 6168,3806 6148,3813 Z"/>
     </g>
    </g>
    <g class="com.sun.star.drawing.ClosedBezierShape">
     <g id="id9">
      <rect class="BoundingBox" stroke="none" fill="none" x="6201" y="1712" width="377" height="481"/>
      <path fill="rgb(255,255,255)" stroke="none" d="M 6419,2046 C 6406,2075 6331,2107 6312,2015 6299,1948 6335,1914 6373,1891 6454,1841 6464,1852 6542,1775 6562,1756 6570,1750 6576,1712 6563,1716 6492,1761 6425,1788 6324,1829 6196,1862 6201,2024 6203,2102 6230,2151 6283,2174 6416,2231 6557,2143 6502,1982 6465,1876 6293,1902 6338,2020 6353,2062 6381,2045 6419,2046 Z"/>
     </g>
    </g>
    <g class="com.sun.star.drawing.ClosedBezierShape">
     <g id="id10">
      <rect class="BoundingBox" stroke="none" fill="none" x="3744" y="3592" width="313" height="537"/>
      <path fill="rgb(255,255,255)" stroke="none" d="M 3823,3773 C 3815,3762 3817,3753 3828,3730 3834,3717 3841,3706 3853,3697 3881,3676 3914,3686 3937,3705 4086,3827 3753,3994 3749,4127 3775,4127 3807,4091 3823,4076 3875,4030 3984,3942 4015,3896 4050,3843 4074,3767 4037,3695 4011,3643 3973,3583 3894,3593 3710,3617 3713,3848 3810,3879 3876,3900 3953,3844 3948,3779 3945,3742 3919,3711 3886,3713 3835,3717 3831,3762 3823,3773 Z"/>
     </g>
    </g>
    <g class="com.sun.star.drawing.ClosedBezierShape">
     <g id="id11">
      <rect class="BoundingBox" stroke="none" fill="none" x="4907" y="900" width="294" height="530"/>
      <path fill="rgb(255,255,255)" stroke="none" d="M 4907,1250 L 4907,1259 C 4907,1453 5153,1493 5193,1316 5214,1221 5185,1137 5100,1132 4997,1127 4978,1291 5088,1267 5095,1256 5101,1240 5112,1232 5142,1300 5015,1323 5000,1262 4974,1164 5057,1135 5104,1047 5122,1012 5148,936 5151,900 5127,915 5059,1030 5016,1065 4968,1104 4907,1153 4907,1250 Z"/>
     </g>
    </g>
    <g class="com.sun.star.drawing.ClosedBezierShape">
     <g id="id12">
      <rect class="BoundingBox" stroke="none" fill="none" x="3529" y="1711" width="430" height="485"/>
      <path fill="rgb(255,255,255)" stroke="none" d="M 3529,1711 C 3535,1749 3557,1760 3584,1815 3634,1919 3674,2078 3727,2148 3746,2173 3779,2205 3830,2191 3864,2182 3906,2152 3925,2132 3987,2064 3950,1950 3893,1909 3821,1858 3702,1922 3758,2020 3770,2040 3777,2045 3809,2045 3839,2045 3835,2023 3845,2006 3868,1971 3881,2079 3805,2067 3724,2055 3715,1949 3683,1875 3654,1811 3587,1731 3529,1711 Z"/>
     </g>
    </g>
    <g class="com.sun.star.drawing.ClosedBezierShape">
     <g id="id13">
      <rect class="BoundingBox" stroke="none" fill="none" x="6412" y="2442" width="301" height="974"/>
      <path fill="rgb(255,255,255)" stroke="none" d="M 6525,2561 C 6548,2559 6564,2548 6583,2545 L 6534,2676 6591,2667 C 6593,2701 6579,2737 6564,2758 6543,2785 6522,2790 6488,2801 6494,2873 6527,2860 6551,2858 6559,2923 6554,2906 6587,2946 6628,2994 6576,3005 6567,3027 6580,3069 6619,3032 6604,3126 6594,3192 6580,3187 6553,3224 6524,3266 6525,3273 6474,3292 6443,3303 6413,3334 6412,3379 6431,3377 6455,3370 6474,3379 6492,3387 6497,3402 6512,3414 6506,3342 6482,3365 6472,3343 6553,3308 6574,3332 6635,3227 6652,3196 6657,3149 6657,3108 6658,3081 6655,3069 6642,3053 L 6616,3027 C 6608,3017 6612,3025 6608,3013 6715,2964 6586,2949 6594,2884 6605,2792 6670,2779 6672,2736 6645,2735 6610,2753 6590,2749 6633,2659 6692,2626 6710,2588 L 6628,2600 C 6636,2526 6702,2496 6712,2473 6685,2470 6663,2472 6637,2471 6608,2469 6611,2455 6592,2442 6555,2460 6569,2451 6553,2495 6545,2520 6531,2541 6525,2561 Z"/>
     </g>
    </g>
    <g class="com.sun.star.drawing.ClosedBezierShape">
     <g id="id14">
      <rect class="BoundingBox" stroke="none" fill="none" x="3526" y="2829" width="249" height="846"/>
      <path fill="rgb(255,255,255)" stroke="none" d="M 3563,3082 C 3572,3077 3565,3086 3572,3073 3574,3069 3574,3065 3576,3060 3581,3041 3576,3045 3589,3037 3602,3054 3594,3130 3589,3154 3575,3212 3530,3240 3526,3280 3524,3309 3537,3309 3545,3326 3557,3352 3540,3345 3563,3369 3581,3387 3570,3400 3593,3406 3609,3387 3595,3367 3614,3342 3625,3346 3658,3379 3665,3390 3695,3435 3673,3640 3692,3673 3716,3665 3712,3606 3728,3575 3742,3548 3765,3518 3773,3486 3741,3489 3743,3520 3715,3518 3714,3487 3710,3478 3725,3458 3739,3440 3742,3427 3730,3401 3692,3322 3647,3404 3639,3284 3638,3270 3630,3226 3615,3258 3610,3269 3615,3273 3607,3286 3598,3303 3600,3286 3594,3307 3586,3332 3598,3347 3584,3370 3557,3352 3557,3246 3614,3198 L 3619,3207 C 3626,3216 3616,3210 3626,3215 L 3632,3183 C 3645,3189 3643,3179 3645,3204 3646,3213 3645,3230 3645,3240 3663,3231 3673,3202 3680,3180 L 3663,3178 C 3679,3124 3714,3131 3731,3099 3705,3103 3686,3112 3664,3119 3625,3130 3626,3147 3609,3152 3607,3124 3614,3125 3625,3111 3636,3097 3633,3087 3643,3073 3675,3074 3743,3086 3766,3075 3775,3037 3732,3000 3692,3005 3699,3025 3720,3027 3727,3050 3695,3044 3692,3010 3665,3015 3665,3034 3671,3025 3679,3044 3628,3047 3621,2991 3644,2951 3659,2923 3684,2868 3672,2829 3659,2834 3661,2837 3655,2855 3650,2873 3649,2876 3641,2889 3604,2949 3533,3030 3563,3082 Z"/>
     </g>
    </g>
    <g class="com.sun.star.drawing.ClosedBezierShape">
     <g id="id15">
      <rect class="BoundingBox" stroke="none" fill="none" x="4236" y="3536" width="380" height="569"/>
      <path fill="rgb(255,255,255)" stroke="none" d="M 4454,3634 C 4458,3529 4523,3595 4566,3616 4562,3637 4556,3634 4557,3660 4574,3656 4614,3595 4615,3585 4583,3577 4552,3583 4528,3563 4501,3541 4501,3529 4446,3540 4421,3545 4428,3562 4386,3588 4373,3596 4323,3616 4316,3625 4334,3675 4466,3676 4490,3702 4480,3716 4481,3705 4472,3716 4465,3725 4470,3725 4463,3738 4447,3734 4453,3731 4438,3719 4397,3688 4299,3704 4298,3860 4297,3922 4314,3888 4321,3928 4327,3963 4319,3980 4303,3999 4268,4039 4245,4014 4236,4103 4245,4098 4255,4076 4265,4065 4306,4017 4281,4063 4336,3999 4371,3956 4322,3873 4340,3822 4349,3793 4376,3757 4416,3766 4457,3812 4409,3870 4417,3908 4460,3897 4457,3824 4483,3778 4510,3731 4536,3716 4582,3686 4515,3666 4503,3675 4454,3634 Z"/>
     </g>
    </g>
    <g class="com.sun.star.drawing.ClosedBezierShape">
     <g id="id16">
      <rect class="BoundingBox" stroke="none" fill="none" x="5659" y="2898" width="372" height="500"/>
      <path fill="rgb(255,255,255)" stroke="none" d="M 5659,3307 C 5711,3307 5730,3314 5777,3321 5775,3242 5760,3219 5804,3166 5818,3149 5832,3134 5844,3110 5852,3092 5857,3049 5870,3043 5886,3109 5836,3178 5836,3222 5917,3213 5965,3269 5960,3326 L 5914,3323 C 5956,3350 5982,3365 6012,3397 6010,3299 5967,3255 6003,3125 6009,3103 6028,3063 6029,3047 6008,3066 5999,3080 5964,3095 5933,3108 5902,3113 5907,3155 5916,3141 5932,3128 5960,3127 L 5949,3191 5896,3187 C 5896,3185 5895,3182 5895,3182 L 5893,3175 C 5891,3158 5896,3138 5897,3118 5899,3081 5894,2913 5884,2898 5864,2904 5876,2909 5870,2961 5861,3031 5841,3081 5797,3127 5771,3154 5745,3167 5727,3214 5720,3232 5714,3259 5704,3269 5685,3290 5663,3266 5659,3307 Z"/>
     </g>
    </g>
    <g class="com.sun.star.drawing.ClosedBezierShape">
     <g id="id17">
      <rect class="BoundingBox" stroke="none" fill="none" x="4282" y="1473" width="548" height="900"/>
      <path fill="rgb(255,255,255)" stroke="none" d="M 4781,1684 C 4745,1695 4731,1689 4696,1709 4675,1722 4646,1749 4627,1753 4623,1710 4599,1696 4572,1723 4566,1761 4590,1775 4562,1809 L 4464,1777 C 4473,1832 4508,1833 4475,1893 4426,1985 4413,1945 4355,2083 4345,2105 4318,2171 4304,2188 4294,2178 4299,2172 4284,2169 4280,2184 4282,2355 4291,2372 4304,2362 4304,2331 4310,2297 4316,2267 4321,2243 4328,2216 4361,2096 4386,2042 4463,1967 4506,1925 4516,1921 4528,1838 4600,1839 4569,1838 4666,1762 4686,1745 4704,1728 4729,1718 4764,1705 4818,1725 4828,1707 4830,1695 4791,1642 4784,1604 4769,1520 4801,1486 4768,1473 4768,1494 4768,1516 4765,1537 4761,1562 4755,1570 4751,1589 4742,1627 4782,1651 4781,1684 Z"/>
     </g>
    </g>
    <g class="com.sun.star.drawing.ClosedBezierShape">
     <g id="id18">
      <rect class="BoundingBox" stroke="none" fill="none" x="5729" y="1634" width="422" height="518"/>
      <path fill="rgb(255,255,255)" stroke="none" d="M 5914,1911 C 5924,1939 5936,1951 5916,1977 5873,1983 5851,1946 5806,1940 5766,1935 5778,1938 5745,1925 5717,1914 5732,1958 5740,1967 5749,1980 5766,1991 5778,2006 5798,2031 5830,2071 5841,2101 5850,2126 5846,2147 5873,2151 5870,2123 5870,2055 5857,2040 5838,2018 5802,2009 5797,1980 5851,1963 5864,2049 5929,2039 5960,2034 5968,2006 5964,1971 5952,1859 5994,1895 6046,1849 6067,1830 6076,1814 6077,1776 6082,1675 6133,1688 6149,1634 5991,1671 6069,1731 6020,1825 5997,1868 5975,1818 5914,1911 Z"/>
     </g>
    </g>
    <g class="com.sun.star.drawing.ClosedBezierShape">
     <g id="id19">
      <rect class="BoundingBox" stroke="none" fill="none" x="6445" y="2154" width="229" height="457"/>
      <path fill="rgb(255,255,255)" stroke="none" d="M 6450,2609 C 6453,2605 6451,2611 6456,2598 6467,2571 6464,2540 6501,2489 6555,2415 6635,2425 6666,2317 6677,2278 6675,2200 6653,2171 6641,2156 6612,2144 6604,2165 6592,2196 6611,2292 6534,2358 6500,2387 6481,2404 6462,2455 6448,2493 6439,2565 6450,2609 Z"/>
     </g>
    </g>
    <g class="com.sun.star.drawing.ClosedBezierShape">
     <g id="id20">
      <rect class="BoundingBox" stroke="none" fill="none" x="6234" y="2150" width="345" height="173"/>
      <path fill="rgb(255,255,255)" stroke="none" d="M 6234,2218 C 6254,2227 6265,2220 6288,2235 6302,2245 6317,2260 6327,2271 6361,2311 6363,2322 6435,2322 6534,2322 6595,2262 6573,2150 6523,2170 6492,2214 6429,2223 6373,2232 6314,2220 6257,2213 6255,2213 6248,2212 6246,2212 6235,2214 6241,2211 6234,2218 Z"/>
     </g>
    </g>
    <g class="com.sun.star.drawing.ClosedBezierShape">
     <g id="id21">
      <rect class="BoundingBox" stroke="none" fill="none" x="4450" y="1307" width="226" height="352"/>
      <path fill="rgb(255,255,255)" stroke="none" d="M 4455,1370 C 4465,1384 4491,1377 4475,1450 4469,1478 4454,1501 4450,1528 4487,1516 4533,1430 4588,1437 4598,1553 4622,1544 4634,1603 4606,1600 4585,1593 4564,1611 4569,1615 4607,1623 4621,1629 4640,1638 4658,1652 4675,1658 4673,1582 4589,1515 4634,1356 4600,1367 4536,1419 4508,1422 4505,1378 4509,1408 4552,1378 4570,1365 4579,1351 4585,1321 4566,1327 4542,1364 4512,1343 4517,1330 4526,1330 4539,1324 4552,1318 4562,1312 4574,1308 4573,1307 4572,1307 4572,1307 L 4561,1307 C 4544,1310 4481,1340 4466,1354 4452,1366 4459,1353 4455,1370 Z"/>
     </g>
    </g>
    <g class="com.sun.star.drawing.ClosedBezierShape">
     <g id="id22">
      <rect class="BoundingBox" stroke="none" fill="none" x="6383" y="3405" width="170" height="405"/>
      <path fill="rgb(255,255,255)" stroke="none" d="M 6521,3490 C 6517,3450 6484,3406 6446,3405 6447,3443 6486,3456 6481,3554 6478,3610 6460,3651 6445,3696 6426,3688 6428,3684 6411,3654 6394,3621 6398,3620 6384,3618 6378,3634 6401,3680 6407,3704 6416,3739 6420,3770 6420,3809 6468,3791 6480,3759 6487,3715 6497,3649 6520,3658 6552,3626 6546,3602 6529,3598 6523,3570 6518,3546 6524,3516 6521,3490 Z"/>
     </g>
    </g>
    <g class="com.sun.star.drawing.ClosedBezierShape">
     <g id="id23">
      <rect class="BoundingBox" stroke="none" fill="none" x="4110" y="2712" width="259" height="400"/>
      <path fill="rgb(255,255,255)" stroke="none" d="M 4110,2910 L 4145,2916 C 4144,2936 4139,2936 4146,2952 4190,2950 4192,2890 4218,2877 4262,2933 4262,3001 4271,3014 4279,3024 4290,3027 4299,3034 4316,3048 4309,3050 4314,3067 4320,3083 4345,3107 4368,3111 4365,3085 4356,3089 4342,3070 4332,3057 4325,3041 4319,3026 4290,2956 4262,2919 4245,2835 4240,2808 4235,2724 4230,2712 4201,2712 4220,2737 4182,2822 4146,2902 4119,2885 4110,2910 Z"/>
     </g>
    </g>
    <g class="com.sun.star.drawing.ClosedBezierShape">
     <g id="id24">
      <rect class="BoundingBox" stroke="none" fill="none" x="3798" y="2966" width="250" height="322"/>
      <path fill="rgb(255,255,255)" stroke="none" d="M 3924,3171 C 3881,3144 3903,3047 3897,2992 3858,3021 3893,3012 3851,3075 3842,3090 3833,3100 3823,3112 3813,3124 3796,3135 3799,3156 3850,3142 3841,3121 3866,3108 3878,3131 3870,3163 3897,3204 3904,3216 3920,3233 3925,3242 3936,3263 3923,3280 3944,3287 3959,3265 3937,3240 3955,3211 3985,3163 3991,3185 3999,3072 4003,3017 3996,3006 4020,2998 4031,3022 4016,3033 4043,3056 4042,3011 4036,3014 4046,2966 4030,2969 4030,2974 4017,2978 3997,2985 3997,2973 3987,2985 3981,2991 3987,3140 3924,3171 Z"/>
     </g>
    </g>
    <g class="com.sun.star.drawing.ClosedBezierShape">
     <g id="id25">
      <rect class="BoundingBox" stroke="none" fill="none" x="5228" y="3355" width="389" height="259"/>
      <path fill="rgb(255,255,255)" stroke="none" d="M 5348,3506 C 5315,3506 5310,3513 5291,3528 5263,3552 5262,3539 5228,3540 5232,3568 5250,3566 5272,3578 5297,3590 5303,3600 5319,3613 5328,3572 5354,3558 5390,3546 5441,3528 5446,3517 5482,3495 L 5495,3510 C 5506,3475 5557,3432 5570,3435 5580,3467 5565,3557 5603,3560 5572,3445 5599,3415 5615,3355 5597,3360 5599,3366 5588,3380 5557,3418 5482,3465 5438,3488 5396,3508 5398,3506 5348,3506 Z"/>
     </g>
    </g>
    <g class="com.sun.star.drawing.ClosedBezierShape">
     <g id="id26">
      <rect class="BoundingBox" stroke="none" fill="none" x="6001" y="3194" width="331" height="251"/>
      <path fill="rgb(255,255,255)" stroke="none" d="M 6001,3247 C 6034,3278 6056,3312 6089,3340 6119,3328 6113,3302 6159,3306 6233,3312 6189,3362 6257,3417 6271,3429 6308,3452 6331,3441 6329,3423 6319,3424 6299,3390 L 6285,3373 6275,3395 C 6226,3354 6247,3337 6218,3279 6181,3210 6151,3260 6122,3288 6100,3291 6080,3280 6071,3266 6060,3246 6066,3220 6067,3195 6050,3204 6049,3211 6035,3224 6020,3237 6015,3238 6001,3247 Z"/>
     </g>
    </g>
    <g class="com.sun.star.drawing.ClosedBezierShape">
     <g id="id27">
      <rect class="BoundingBox" stroke="none" fill="none" x="5389" y="1250" width="273" height="280"/>
      <path fill="rgb(255,255,255)" stroke="none" d="M 5389,1352 C 5430,1343 5416,1314 5443,1297 5459,1293 5460,1319 5488,1329 5511,1336 5541,1333 5567,1332 5569,1420 5538,1426 5526,1482 5516,1518 5506,1497 5500,1524 5536,1544 5546,1496 5552,1466 5559,1434 5587,1422 5605,1402 5610,1373 5605,1352 5618,1330 5631,1310 5652,1299 5661,1284 5609,1283 5579,1318 5519,1305 5475,1296 5459,1251 5407,1250 5404,1296 5397,1312 5389,1352 Z"/>
     </g>
    </g>
    <g class="com.sun.star.drawing.ClosedBezierShape">
     <g id="id28">
      <rect class="BoundingBox" stroke="none" fill="none" x="4164" y="1784" width="164" height="333"/>
      <path fill="rgb(255,255,255)" stroke="none" d="M 4250,1918 C 4197,1918 4206,1843 4197,1827 4180,1836 4184,1884 4183,1902 4178,1981 4167,1933 4164,1965 4164,1981 4163,1976 4168,1988 4184,1986 4181,1984 4187,1969 4227,1874 4243,1965 4246,2007 4247,2022 4224,2091 4256,2115 4256,2114 4257,2111 4257,2112 L 4262,2071 C 4265,2052 4270,2050 4276,2034 4288,2006 4290,1975 4288,1943 4281,1839 4299,1857 4326,1785 4275,1782 4261,1878 4250,1918 Z"/>
     </g>
    </g>
    <g class="com.sun.star.drawing.ClosedBezierShape">
     <g id="id29">
      <rect class="BoundingBox" stroke="none" fill="none" x="5500" y="3612" width="228" height="247"/>
      <path fill="rgb(255,255,255)" stroke="none" d="M 5727,3625 C 5694,3624 5684,3620 5655,3612 5662,3642 5662,3643 5644,3661 5584,3723 5527,3699 5510,3702 5499,3704 5508,3700 5500,3706 L 5500,3720 C 5520,3735 5513,3726 5514,3726 L 5555,3726 C 5575,3726 5594,3725 5612,3726 5617,3772 5595,3762 5592,3802 5593,3802 5595,3803 5595,3803 5617,3811 5617,3809 5619,3829 5621,3849 5614,3859 5636,3857 5648,3801 5640,3774 5664,3720 5689,3664 5719,3648 5727,3625 Z"/>
     </g>
    </g>
    <g class="com.sun.star.drawing.ClosedBezierShape">
     <g id="id30">
      <rect class="BoundingBox" stroke="none" fill="none" x="4656" y="3496" width="374" height="114"/>
      <path fill="rgb(255,255,255)" stroke="none" d="M 4656,3608 C 4698,3594 4723,3550 4765,3578 4819,3616 4841,3587 4906,3589 4936,3589 5004,3597 5028,3586 4999,3570 4890,3591 4807,3524 4756,3483 4769,3488 4725,3529 4703,3548 4665,3576 4656,3608 Z"/>
     </g>
    </g>
    <g class="com.sun.star.drawing.ClosedBezierShape">
     <g id="id31">
      <rect class="BoundingBox" stroke="none" fill="none" x="4983" y="1497" width="280" height="186"/>
      <path fill="rgb(255,255,255)" stroke="none" d="M 5145,1609 C 5116,1612 5066,1607 5043,1613 5032,1616 4988,1652 4983,1660 5025,1660 5101,1649 5145,1665 5167,1673 5166,1688 5183,1678 5202,1639 5165,1626 5216,1583 5233,1569 5261,1538 5262,1497 5246,1500 5258,1494 5246,1507 5240,1513 5238,1518 5233,1524 5224,1533 5215,1541 5202,1549 5138,1585 5175,1570 5145,1609 Z"/>
     </g>
    </g>
    <g class="com.sun.star.drawing.ClosedBezierShape">
     <g id="id32">
      <rect class="BoundingBox" stroke="none" fill="none" x="4865" y="3612" width="400" height="111"/>
      <path fill="rgb(255,255,255)" stroke="none" d="M 4865,3687 C 4883,3685 4895,3678 4917,3675 4952,3671 4953,3631 5008,3631 5034,3631 5035,3638 5044,3659 5073,3715 5086,3678 5127,3669 5175,3657 5189,3686 5203,3722 5244,3723 5259,3675 5264,3636 5241,3648 5241,3673 5217,3669 5203,3667 5189,3644 5172,3636 5124,3617 5113,3681 5063,3643 5007,3599 5003,3614 4949,3623 4915,3629 4910,3616 4892,3644 4883,3658 4872,3672 4865,3687 Z"/>
     </g>
    </g>
    <g class="com.sun.star.drawing.ClosedBezierShape">
     <g id="id33">
      <rect class="BoundingBox" stroke="none" fill="none" x="4380" y="1168" width="252" height="231"/>
      <path fill="rgb(255,255,255)" stroke="none" d="M 4463,1290 C 4438,1254 4416,1224 4380,1200 4388,1225 4415,1260 4419,1278 4426,1304 4414,1369 4415,1398 4440,1392 4426,1384 4456,1351 4466,1338 4484,1318 4503,1306 4535,1286 4597,1261 4631,1287 4631,1267 4620,1259 4620,1232 4619,1205 4627,1187 4613,1169 4581,1209 4609,1232 4559,1251 4535,1261 4485,1286 4463,1290 Z"/>
     </g>
    </g>
    <g class="com.sun.star.drawing.ClosedBezierShape">
     <g id="id34">
      <rect class="BoundingBox" stroke="none" fill="none" x="4449" y="3328" width="220" height="227"/>
      <path fill="rgb(255,255,255)" stroke="none" d="M 4449,3527 C 4480,3520 4473,3502 4490,3478 4510,3484 4505,3508 4542,3516 4568,3522 4603,3513 4623,3528 4622,3528 4621,3528 4620,3529 4619,3534 4604,3531 4599,3546 4616,3560 4648,3552 4667,3547 4663,3528 4658,3525 4645,3517 4576,3471 4585,3504 4540,3472 4499,3443 4496,3380 4488,3344 4482,3318 4491,3333 4478,3329 4469,3344 4480,3405 4475,3434 4470,3463 4449,3508 4449,3527 Z"/>
     </g>
    </g>
    <g class="com.sun.star.drawing.ClosedBezierShape">
     <g id="id35">
      <rect class="BoundingBox" stroke="none" fill="none" x="5444" y="1731" width="300" height="109"/>
      <path fill="rgb(255,255,255)" stroke="none" d="M 5444,1749 C 5461,1761 5500,1758 5518,1765 5529,1795 5521,1807 5518,1838 5542,1836 5563,1810 5597,1815 5626,1820 5594,1814 5613,1823 5654,1842 5686,1797 5696,1788 5709,1778 5737,1763 5743,1748 5726,1736 5692,1769 5665,1777 5639,1787 5592,1788 5564,1781 5545,1759 5560,1729 5518,1732 5504,1733 5497,1737 5480,1738 5459,1739 5454,1735 5444,1749 Z"/>
     </g>
    </g>
    <g class="com.sun.star.drawing.ClosedBezierShape">
     <g id="id36">
      <rect class="BoundingBox" stroke="none" fill="none" x="5310" y="1497" width="201" height="235"/>
      <path fill="rgb(255,255,255)" stroke="none" d="M 5340,1572 L 5426,1564 C 5425,1583 5408,1618 5404,1647 5402,1663 5402,1684 5403,1700 5405,1724 5404,1729 5423,1731 5437,1679 5411,1605 5493,1566 5508,1558 5507,1560 5510,1552 5344,1557 5375,1511 5310,1497 5318,1528 5333,1527 5340,1572 Z"/>
     </g>
    </g>
    <g class="com.sun.star.drawing.ClosedBezierShape">
     <g id="id37">
      <rect class="BoundingBox" stroke="none" fill="none" x="5381" y="1337" width="141" height="185"/>
      <path fill="rgb(255,255,255)" stroke="none" d="M 5381,1434 C 5428,1432 5359,1412 5456,1439 5492,1449 5485,1482 5480,1520 5510,1509 5514,1447 5511,1415 5483,1408 5438,1397 5452,1360 5453,1360 5454,1358 5455,1359 5455,1360 5457,1359 5458,1359 5480,1358 5495,1373 5521,1381 5515,1343 5434,1304 5404,1381 L 5381,1434 Z"/>
     </g>
    </g>
    <g class="com.sun.star.drawing.ClosedBezierShape">
     <g id="id38">
      <rect class="BoundingBox" stroke="none" fill="none" x="5884" y="1683" width="129" height="216"/>
      <path fill="rgb(255,255,255)" stroke="none" d="M 5907,1877 L 5885,1886 C 5899,1910 5927,1894 5931,1872 5935,1841 5928,1822 5938,1789 5948,1758 5955,1760 5984,1747 6007,1736 6015,1701 6010,1684 5974,1678 5930,1719 5917,1742 5882,1803 5910,1827 5907,1877 Z"/>
     </g>
    </g>
    <g class="com.sun.star.drawing.ClosedBezierShape">
     <g id="id39">
      <rect class="BoundingBox" stroke="none" fill="none" x="4069" y="1721" width="102" height="273"/>
      <path fill="rgb(255,255,255)" stroke="none" d="M 4125,1878 C 4103,1872 4097,1848 4069,1849 4070,1901 4118,1852 4123,1993 4163,1985 4144,1955 4150,1918 4158,1867 4163,1946 4170,1832 L 4144,1850 C 4137,1838 4138,1839 4136,1824 4135,1813 4134,1801 4134,1790 4132,1758 4136,1747 4140,1721 4127,1726 4122,1732 4112,1724 L 4125,1878 Z"/>
     </g>
    </g>
    <g class="com.sun.star.drawing.ClosedBezierShape">
     <g id="id40">
      <rect class="BoundingBox" stroke="none" fill="none" x="5440" y="3480" width="126" height="206"/>
      <path fill="rgb(255,255,255)" stroke="none" d="M 5555,3623 C 5543,3585 5499,3618 5545,3536 5558,3511 5559,3513 5556,3480 5532,3495 5517,3516 5499,3537 5447,3602 5469,3563 5441,3590 5453,3601 5487,3611 5509,3631 5527,3647 5545,3672 5565,3685 L 5555,3623 Z"/>
     </g>
    </g>
    <g class="com.sun.star.drawing.ClosedBezierShape">
     <g id="id41">
      <rect class="BoundingBox" stroke="none" fill="none" x="4935" y="1535" width="216" height="67"/>
      <path fill="rgb(255,255,255)" stroke="none" d="M 4935,1600 C 4972,1605 5000,1585 5034,1579 5080,1571 5106,1585 5145,1591 5145,1574 5147,1566 5147,1551 5148,1537 5155,1547 5143,1539 5137,1535 5131,1535 5125,1535 5098,1535 5071,1537 5041,1536 5004,1535 5003,1546 4983,1563 4958,1586 4943,1573 4935,1600 Z"/>
     </g>
    </g>
    <g class="com.sun.star.drawing.ClosedBezierShape">
     <g id="id42">
      <rect class="BoundingBox" stroke="none" fill="none" x="6657" y="2866" width="76" height="189"/>
      <path fill="rgb(255,255,255)" stroke="none" d="M 6727,3054 C 6727,3021 6718,2992 6716,2959 6714,2912 6736,2892 6731,2867 6686,2868 6645,2895 6660,2951 6671,2992 6708,3032 6727,3054 Z"/>
     </g>
    </g>
    <g class="com.sun.star.drawing.ClosedBezierShape">
     <g id="id43">
      <rect class="BoundingBox" stroke="none" fill="none" x="6106" y="3170" width="191" height="150"/>
      <path fill="rgb(255,255,255)" stroke="none" d="M 6114,3180 C 6123,3202 6128,3200 6126,3230 L 6106,3249 C 6157,3252 6144,3226 6161,3204 6191,3196 6212,3197 6220,3224 6214,3239 6210,3228 6202,3243 6238,3263 6273,3290 6295,3318 6296,3291 6254,3224 6240,3206 6207,3165 6173,3163 6114,3180 Z"/>
     </g>
    </g>
    <g class="com.sun.star.drawing.ClosedBezierShape">
     <g id="id44">
      <rect class="BoundingBox" stroke="none" fill="none" x="4312" y="1893" width="89" height="223"/>
      <path fill="rgb(255,255,255)" stroke="none" d="M 4317,2115 C 4340,2100 4322,2069 4367,2015 4392,1984 4394,1947 4400,1893 4379,1894 4390,1896 4361,1926 4299,1992 4334,1996 4315,2081 4313,2089 4312,2090 4312,2097 4312,2120 4312,2108 4317,2115 Z"/>
     </g>
    </g>
    <g class="com.sun.star.drawing.ClosedBezierShape">
     <g id="id45">
      <rect class="BoundingBox" stroke="none" fill="none" x="5544" y="3861" width="179" height="138"/>
      <path fill="rgb(255,255,255)" stroke="none" d="M 5628,3876 C 5602,3868 5579,3852 5544,3868 5563,3888 5566,3873 5585,3893 5598,3905 5602,3918 5610,3940 5637,3935 5638,3903 5690,3904 5681,3925 5661,3975 5681,3998 5687,3989 5692,3948 5698,3933 5706,3912 5719,3895 5722,3873 5700,3873 5643,3881 5628,3876 Z"/>
     </g>
    </g>
    <g class="com.sun.star.drawing.ClosedBezierShape">
     <g id="id46">
      <rect class="BoundingBox" stroke="none" fill="none" x="5495" y="1127" width="135" height="169"/>
      <path fill="rgb(255,255,255)" stroke="none" d="M 5558,1251 C 5497,1271 5546,1208 5547,1206 5481,1171 5467,1346 5583,1279 5583,1248 5578,1211 5586,1183 5597,1146 5617,1152 5629,1127 L 5593,1128 C 5557,1183 5566,1175 5558,1251 Z"/>
     </g>
    </g>
    <g class="com.sun.star.drawing.ClosedBezierShape">
     <g id="id47">
      <rect class="BoundingBox" stroke="none" fill="none" x="4302" y="3122" width="131" height="157"/>
      <path fill="rgb(255,255,255)" stroke="none" d="M 4432,3277 C 4421,3210 4404,3237 4380,3216 4360,3187 4382,3164 4371,3143 4358,3131 4322,3122 4302,3123 4304,3137 4316,3145 4325,3165 4348,3215 4302,3246 4388,3253 4429,3256 4416,3270 4432,3277 Z"/>
     </g>
    </g>
    <g class="com.sun.star.drawing.ClosedBezierShape">
     <g id="id48">
      <rect class="BoundingBox" stroke="none" fill="none" x="5909" y="2271" width="111" height="205"/>
      <path fill="rgb(255,255,255)" stroke="none" d="M 5932,2475 C 5949,2473 5947,2475 5956,2432 5985,2277 6019,2337 6019,2286 5995,2300 5978,2324 5954,2334 L 5912,2271 C 5905,2283 5912,2296 5918,2313 5946,2382 5910,2441 5932,2475 Z"/>
     </g>
    </g>
    <g class="com.sun.star.drawing.ClosedBezierShape">
     <g id="id49">
      <rect class="BoundingBox" stroke="none" fill="none" x="5677" y="4003" width="147" height="176"/>
      <path fill="rgb(255,255,255)" stroke="none" d="M 5745,4030 C 5742,3997 5701,3997 5685,4018 5668,4043 5679,4081 5702,4091 5738,4104 5742,4081 5776,4120 5787,4134 5808,4172 5817,4178 L 5822,4146 C 5800,4127 5789,4110 5771,4088 5729,4041 5711,4080 5712,4037 L 5745,4030 Z"/>
     </g>
    </g>
    <g class="com.sun.star.drawing.ClosedBezierShape">
     <g id="id50">
      <rect class="BoundingBox" stroke="none" fill="none" x="4510" y="3342" width="177" height="156"/>
      <path fill="rgb(255,255,255)" stroke="none" d="M 4510,3365 C 4515,3369 4545,3397 4547,3401 4561,3429 4540,3434 4574,3454 4596,3467 4660,3495 4686,3496 4678,3475 4641,3465 4599,3427 4582,3411 4532,3357 4523,3342 L 4510,3365 Z"/>
     </g>
    </g>
    <g class="com.sun.star.drawing.ClosedBezierShape">
     <g id="id51">
      <rect class="BoundingBox" stroke="none" fill="none" x="6150" y="1581" width="83" height="123"/>
      <path fill="rgb(255,255,255)" stroke="none" d="M 6150,1600 L 6160,1604 C 6161,1604 6162,1605 6163,1605 L 6169,1608 C 6171,1608 6172,1608 6173,1609 6172,1637 6194,1666 6169,1683 6152,1694 6160,1677 6150,1696 6157,1702 6142,1704 6166,1701 6178,1700 6200,1684 6208,1676 6220,1663 6236,1638 6230,1613 L 6194,1610 C 6164,1604 6214,1618 6186,1608 6185,1607 6184,1606 6183,1606 6182,1606 6181,1605 6180,1604 6201,1594 6198,1608 6203,1584 6186,1577 6161,1581 6150,1600 Z"/>
     </g>
    </g>
    <g class="com.sun.star.drawing.ClosedBezierShape">
     <g id="id52">
      <rect class="BoundingBox" stroke="none" fill="none" x="5660" y="1822" width="58" height="98"/>
      <path fill="rgb(255,255,255)" stroke="none" d="M 5662,1833 C 5677,1888 5681,1864 5660,1919 L 5717,1915 C 5710,1881 5713,1860 5712,1822 L 5662,1833 Z"/>
     </g>
    </g>
    <g class="com.sun.star.drawing.ClosedBezierShape">
     <g id="id53">
      <rect class="BoundingBox" stroke="none" fill="none" x="5360" y="1466" width="113" height="50"/>
      <path fill="rgb(255,255,255)" stroke="none" d="M 5360,1487 C 5363,1513 5380,1517 5404,1514 5419,1512 5459,1508 5471,1504 5476,1475 5457,1459 5430,1469 5398,1482 5409,1495 5360,1487 Z"/>
     </g>
    </g>
    <g class="com.sun.star.drawing.ClosedBezierShape">
     <g id="id54">
      <rect class="BoundingBox" stroke="none" fill="none" x="5876" y="2190" width="81" height="88"/>
      <path fill="rgb(255,255,255)" stroke="none" d="M 5876,2198 C 5877,2225 5890,2207 5892,2241 5925,2235 5915,2236 5927,2263 L 5938,2277 C 5943,2266 5940,2247 5943,2231 5947,2215 5952,2210 5956,2191 L 5876,2198 Z"/>
     </g>
    </g>
    <g class="com.sun.star.drawing.ClosedBezierShape">
     <g id="id55">
      <rect class="BoundingBox" stroke="none" fill="none" x="6654" y="2393" width="56" height="53"/>
      <path fill="rgb(255,255,255)" stroke="none" d="M 6708,2393 L 6669,2393 C 6662,2408 6639,2441 6669,2444 6697,2446 6710,2422 6708,2393 Z"/>
     </g>
    </g>
   </g>
   <g class="Group">
    <g class="com.sun.star.drawing.ClosedBezierShape">
     <g id="id56">
      <rect class="BoundingBox" stroke="none" fill="none" x="3276" y="1226" width="3555" height="2074"/>
      <g>
       <defs>
        <linearGradient id="gradient1" x1="5051" y1="3294" x2="5051" y2="1240" gradientUnits="userSpaceOnUse">
         <stop offset="0" style="stop-color:rgb(255,149,0)"/>
         <stop offset="1" style="stop-color:rgb(224,0,0)"/>
        </linearGradient>
       </defs>
       <path style="fill:url(#gradient1)" d="M 5970,2337 L 5971,2353 5971,2358 5972,2361 5972,2362 5972,2362 5972,2363 5972,2363 5973,2363 5973,2363 5973,2363 5973,2363 5973,2363 5973,2363 5973,2362 5974,2361 5975,2359 5975,2358 5976,2358 5976,2358 5976,2357 5976,2357 5977,2357 5977,2357 5977,2357 5977,2358 5978,2358 5978,2359 5978,2360 5979,2361 5980,2365 5981,2372 5982,2422 5986,2474 5989,2500 5992,2525 5997,2550 6002,2573 6007,2591 6014,2611 6022,2632 6032,2653 6043,2673 6049,2683 6055,2691 6061,2699 6067,2706 6074,2712 6081,2717 6078,2712 6076,2707 6073,2701 6071,2695 6069,2689 6067,2682 6065,2676 6064,2669 6080,2683 6095,2695 6110,2705 6125,2714 6139,2721 6152,2727 6178,2737 6219,2748 6227,2751 6234,2753 6240,2756 6243,2757 6245,2759 6234,2775 6220,2792 6213,2801 6206,2808 6199,2815 6196,2817 6193,2819 6203,2787 6200,2789 6198,2791 6194,2796 6189,2802 6185,2807 6178,2819 6174,2824 6170,2829 6160,2839 6145,2851 6110,2878 6090,2892 6072,2903 6056,2912 6049,2916 6043,2918 6044,2915 6046,2912 6050,2906 6055,2900 6059,2895 6069,2883 6073,2878 6077,2872 5973,2923 5953,2929 5930,2934 5905,2937 5877,2939 5846,2938 5813,2935 5777,2929 5737,2920 5795,2886 5813,2873 5821,2867 5829,2860 5836,2853 5842,2845 5848,2837 5852,2829 5822,2842 5844,2810 5866,2773 5887,2734 5907,2692 5924,2648 5938,2604 5948,2560 5952,2538 5954,2517 5957,2481 5962,2449 5967,2417 5971,2384 5968,2386 5966,2389 5965,2391 5963,2393 5962,2395 5961,2397 5960,2400 5958,2404 5957,2406 5956,2408 5954,2410 5953,2413 5951,2415 5948,2418 5949,2384 5950,2347 5952,2328 5955,2311 5957,2303 5960,2296 5963,2289 5966,2282 5968,2296 5969,2309 5970,2322 5970,2337 Z M 5571,2337 L 5574,2325 5578,2313 5583,2300 5588,2286 5599,2260 5610,2238 5615,2228 5620,2220 5625,2214 5629,2209 5637,2199 5642,2194 5647,2186 5652,2177 5654,2174 5655,2173 5656,2172 5657,2171 5658,2170 5659,2169 5660,2168 5664,2166 5669,2163 5672,2192 5661,2192 5661,2192 5661,2192 5660,2192 5660,2192 5660,2192 5660,2192 5659,2192 5659,2192 5659,2192 5659,2192 5659,2192 5659,2192 5659,2192 5659,2192 5659,2192 5659,2192 5659,2192 5659,2192 5659,2192 5659,2192 5658,2192 5658,2192 5658,2192 5658,2192 5658,2192 5658,2192 5657,2192 5657,2192 5656,2192 5656,2192 5656,2192 5668,2271 5678,2360 5681,2405 5682,2450 5680,2492 5677,2511 5674,2530 5673,2528 5672,2526 5671,2523 5670,2521 5669,2519 5668,2518 5667,2516 5665,2512 5664,2509 5664,2508 5664,2507 5663,2507 5663,2507 5663,2507 5663,2507 5663,2507 5662,2506 5660,2505 5656,2503 5656,2551 5655,2574 5652,2596 5648,2618 5643,2638 5637,2658 5629,2676 5620,2693 5609,2708 5597,2722 5583,2734 5568,2745 5550,2753 5531,2760 5510,2764 5513,2758 5515,2753 5517,2749 5518,2747 5520,2746 5522,2743 5525,2740 5533,2733 5529,2733 5525,2734 5515,2737 5505,2742 5494,2747 5472,2759 5461,2764 5450,2768 5445,2769 5439,2770 5434,2770 5430,2770 5425,2769 5421,2767 5417,2764 5413,2761 5410,2756 5407,2751 5404,2744 5402,2737 5399,2718 5398,2693 5404,2688 5409,2683 5422,2672 5434,2662 5445,2653 5451,2647 5458,2640 5473,2622 5507,2577 5537,2533 5548,2515 5552,2508 5554,2503 5525,2522 5535,2498 5546,2474 5551,2462 5555,2449 5560,2436 5563,2422 5571,2392 5579,2366 5597,2314 5593,2317 5589,2321 5584,2326 5582,2328 5579,2331 5576,2334 5571,2337 Z M 4723,2475 L 4719,2474 4715,2473 4712,2472 4709,2470 4707,2469 4704,2467 4700,2463 4696,2459 4692,2455 4689,2453 4687,2451 4684,2450 4681,2449 4674,2446 4667,2442 4660,2437 4652,2431 4645,2424 4637,2416 4623,2399 4610,2380 4599,2361 4595,2352 4591,2344 4589,2336 4587,2328 4587,2367 4584,2365 4582,2362 4579,2360 4577,2357 4572,2351 4568,2344 4564,2337 4560,2330 4554,2317 4543,2291 4538,2276 4533,2261 4525,2230 4518,2196 4513,2161 4511,2144 4510,2128 4587,2220 4556,2209 4663,2320 4662,2321 4661,2321 4659,2321 4658,2321 4657,2321 4656,2321 4654,2321 4651,2320 4650,2320 4649,2320 4648,2320 4646,2320 4645,2320 4643,2321 4652,2330 4662,2338 4673,2346 4685,2354 4709,2369 4732,2382 4723,2475 Z M 4074,1240 L 4076,1245 4079,1250 4081,1254 4083,1258 4085,1261 4088,1264 4093,1269 4103,1279 4109,1286 4115,1295 4067,1280 4055,1276 4042,1273 4029,1271 4015,1269 4017,1273 4018,1274 4018,1275 4018,1275 4018,1275 4018,1275 4018,1275 4018,1275 4018,1275 4018,1275 4018,1275 4018,1275 4018,1275 4018,1275 4018,1275 4018,1275 4018,1275 4018,1275 4018,1275 4018,1275 4018,1275 4018,1275 4018,1275 4018,1275 4018,1275 4019,1275 4019,1275 4020,1276 4022,1278 4027,1283 4062,1315 4081,1334 4099,1355 4116,1376 4124,1387 4130,1398 4136,1409 4141,1420 4145,1431 4148,1442 4150,1450 4151,1455 4151,1455 4151,1456 4151,1456 4151,1456 4151,1456 4151,1456 4151,1456 4151,1456 4151,1456 4151,1456 4151,1456 4151,1456 4151,1455 4151,1454 4150,1454 4150,1453 4149,1453 4149,1453 4148,1452 4148,1452 4148,1452 4147,1453 4146,1453 4146,1453 4145,1454 4145,1455 4144,1456 4142,1462 4142,1463 4143,1465 4145,1469 4152,1482 4161,1502 4172,1531 4182,1569 4191,1617 4197,1677 4198,1749 4196,1747 4195,1745 4191,1740 4188,1734 4186,1729 4181,1718 4178,1712 4177,1710 4175,1708 4189,1926 4163,1895 4178,1936 4185,1960 4192,1984 4198,2009 4202,2034 4205,2058 4205,2070 4205,2081 4198,2074 4191,2068 4181,2056 4159,2032 4142,2015 4123,1999 4103,1984 4083,1970 4041,1944 3998,1919 3997,1921 3997,1922 3996,1923 3996,1923 3996,1924 3996,1924 3996,1924 3996,1925 3996,1925 3996,1926 3997,1926 3997,1927 3997,1927 3997,1927 3997,1927 3997,1927 3997,1927 3997,1927 3997,1927 3997,1927 3997,1927 3997,1927 3997,1928 3997,1928 3996,1928 3993,1928 3992,1928 3991,1928 3988,1928 3986,1927 3983,1926 3977,1923 3971,1920 3959,1914 3954,1911 3950,1909 3931,1902 3912,1897 3876,1887 3860,1881 3844,1875 3837,1871 3830,1867 3823,1862 3817,1857 3801,1842 3791,1833 3780,1823 3768,1814 3757,1807 3751,1803 3746,1801 3741,1798 3736,1797 3730,1796 3726,1795 3725,1795 3724,1795 3723,1795 3722,1795 3722,1795 3722,1795 3722,1796 3722,1796 3722,1796 3722,1796 3722,1796 3722,1797 3722,1797 3722,1798 3723,1799 3725,1800 3725,1801 3725,1801 3725,1801 3725,1801 3725,1801 3725,1801 3725,1801 3725,1801 3725,1801 3724,1800 3721,1799 3712,1794 3697,1786 3683,1778 3668,1769 3652,1761 3629,1751 3612,1744 3598,1740 3592,1738 3587,1735 3583,1732 3578,1728 3574,1723 3570,1717 3566,1710 3561,1701 3551,1676 3550,1678 3550,1681 3549,1684 3549,1687 3549,1693 3550,1699 3551,1714 3551,1721 3551,1728 3543,1719 3534,1709 3518,1686 3484,1632 3466,1605 3450,1580 3433,1558 3424,1549 3416,1541 3421,1571 3416,1568 3411,1565 3401,1559 3382,1543 3372,1536 3362,1529 3357,1526 3352,1523 3347,1521 3341,1519 3343,1522 3344,1525 3346,1526 3347,1528 3350,1531 3352,1533 3354,1536 3360,1544 3366,1553 3371,1562 3375,1571 3383,1590 3389,1611 3394,1632 3398,1653 3406,1694 3427,1794 3436,1847 3439,1871 3441,1892 3425,1873 3426,1880 3428,1888 3433,1904 3446,1940 3452,1957 3456,1974 3458,1982 3459,1989 3459,1995 3458,1998 3458,2001 3458,2001 3458,2001 3458,2002 3458,2002 3458,2002 3458,2003 3457,2003 3457,2003 3457,2003 3457,2004 3457,2004 3457,2004 3458,2018 3471,2069 3487,2120 3505,2170 3525,2218 3538,2243 3554,2272 3568,2300 3574,2311 3576,2316 3577,2320 3554,2308 3556,2312 3558,2317 3565,2329 3583,2359 3603,2390 3618,2412 3626,2423 3635,2435 3657,2461 3676,2485 3684,2496 3687,2501 3689,2505 3624,2498 3607,2497 3591,2496 3574,2496 3557,2498 3572,2507 3575,2509 3578,2511 3582,2514 3586,2518 3536,2524 3508,2529 3481,2535 3456,2542 3444,2546 3432,2551 3422,2556 3412,2562 3404,2568 3397,2575 3418,2582 3418,2582 3418,2582 3418,2582 3418,2582 3419,2582 3419,2582 3419,2582 3419,2582 3419,2582 3419,2582 3420,2582 3420,2582 3421,2583 3421,2583 3422,2583 3422,2583 3422,2583 3422,2583 3415,2586 3407,2589 3392,2596 3377,2606 3362,2616 3348,2628 3335,2640 3323,2652 3314,2664 3309,2672 3307,2675 3307,2675 3307,2676 3307,2676 3307,2676 3307,2676 3307,2676 3307,2676 3308,2676 3308,2676 3308,2676 3311,2676 3311,2676 3312,2676 3312,2676 3313,2676 3313,2676 3313,2676 3313,2676 3313,2676 3314,2677 3314,2677 3314,2678 3313,2680 3313,2681 3311,2685 3305,2698 3300,2709 3296,2720 3292,2733 3289,2746 3284,2774 3281,2804 3280,2834 3280,2864 3282,2892 3285,2919 3286,2918 3288,2918 3288,2917 3289,2917 3290,2916 3290,2916 3290,2915 3291,2915 3292,2911 3293,2908 3295,2905 3316,2879 3327,2866 3339,2854 3351,2842 3364,2831 3378,2822 3385,2818 3392,2814 3386,2825 3383,2830 3380,2834 3378,2837 3375,2840 3372,2842 3370,2845 3358,2853 3352,2859 3345,2866 3353,2864 3362,2861 3384,2853 3439,2827 3469,2813 3499,2800 3529,2789 3543,2785 3557,2782 3550,2787 3543,2792 3531,2800 3525,2804 3522,2807 3519,2810 3517,2813 3514,2816 3512,2820 3509,2824 3525,2822 3541,2819 3574,2814 3590,2811 3606,2809 3622,2808 3638,2809 3631,2813 3624,2816 3608,2824 3600,2828 3593,2833 3590,2835 3587,2838 3585,2840 3583,2843 3605,2842 3626,2842 3645,2843 3663,2845 3680,2848 3697,2853 3715,2858 3733,2865 3711,2873 3722,2877 3737,2882 3775,2898 3812,2914 3826,2921 3831,2924 3835,2926 3797,2938 3805,2942 3813,2945 3828,2950 3854,2957 3868,2961 3874,2964 3881,2967 3888,2971 3895,2975 3903,2981 3911,2987 3934,3006 3945,3015 3957,3025 3979,3043 3990,3052 4000,3060 3937,3044 3944,3051 3952,3058 3960,3064 3969,3070 3987,3081 4007,3091 4027,3100 4048,3108 4069,3114 4089,3120 4096,3122 4104,3124 4118,3130 4132,3135 4139,3137 4146,3139 4117,3148 4189,3163 4224,3169 4266,3173 4264,3175 4261,3177 4259,3179 4257,3180 4255,3181 4253,3182 4249,3184 4241,3186 4239,3187 4237,3188 4234,3189 4232,3191 4252,3192 4265,3193 4273,3193 4276,3193 4279,3193 4281,3194 4284,3195 4290,3199 4316,3216 4332,3226 4350,3236 4368,3246 4378,3250 4387,3254 4362,3260 4367,3263 4372,3265 4377,3267 4383,3268 4394,3271 4405,3273 4426,3278 4431,3279 4433,3280 4434,3281 4435,3281 4435,3281 4435,3282 4436,3282 4436,3282 4436,3282 4436,3283 4436,3283 4436,3284 4436,3285 4436,3285 4436,3286 4436,3286 4542,3294 4656,3286 4658,3285 4661,3283 4669,3279 4690,3270 4710,3262 4718,3259 4721,3258 4723,3257 4897,3144 4893,3144 4890,3143 4888,3142 4886,3140 4884,3139 4883,3137 4883,3134 4883,3132 4883,3129 4883,3126 4885,3119 4889,3112 4893,3105 4898,3098 4903,3091 4914,3077 4920,3072 4925,3067 4929,3063 4931,3062 4933,3061 4934,3058 4934,3057 4934,3057 4934,3056 4934,3056 4934,3056 4934,3056 4934,3056 4934,3056 4934,3056 4934,3056 4934,3056 4933,3056 4933,3056 4933,3057 4933,3057 4933,3057 4933,3058 4933,3059 4933,3059 4933,3059 4934,3060 4934,3060 4934,3060 4934,3061 4934,3061 4935,3061 4935,3061 4937,3062 4937,3062 4938,3062 4938,3063 4939,3063 4939,3063 4939,3063 4939,3063 4939,3064 4939,3064 4939,3064 4939,3064 4939,3064 4938,3064 4938,3064 4938,3064 4937,3065 4937,3065 4936,3065 4936,3065 4936,3065 4936,3065 4936,3065 4936,3065 4936,3065 4936,3065 4936,3065 4936,3065 4936,3065 4936,3064 4936,3064 4936,3064 4937,3064 4938,3064 4940,3063 4945,3051 4949,3041 4952,3033 4956,3027 4960,3021 4965,3015 4979,3000 4983,2995 4987,2991 4991,2988 4995,2985 4999,2983 5003,2981 5007,2980 5011,2979 5016,2978 5021,2978 5026,2978 5032,2979 5045,2981 5060,2985 5077,2990 5095,2996 5114,3004 5133,3013 5170,3032 5186,3041 5199,3049 5663,3094 5673,3099 5685,3104 5708,3118 5720,3124 5730,3129 5734,3131 5738,3132 5741,3133 5743,3133 5744,3133 5746,3133 5748,3133 5753,3135 5760,3138 5768,3142 5808,3163 5853,3188 5874,3198 5884,3202 5893,3205 5925,3213 5963,3221 6005,3226 6048,3230 6092,3230 6133,3228 6151,3225 6168,3221 6184,3215 6197,3209 6166,3205 6189,3201 6213,3195 6237,3188 6261,3180 6285,3171 6307,3162 6328,3153 6347,3143 6372,3130 6392,3118 6410,3106 6426,3095 6441,3083 6455,3070 6486,3040 6449,3049 6461,3008 6476,2970 6491,2936 6507,2905 6534,2859 6544,2844 6546,2839 6548,2836 6545,2837 6542,2837 6539,2838 6536,2840 6531,2842 6526,2845 6516,2851 6511,2854 6506,2857 6513,2842 6521,2827 6541,2795 6582,2736 6600,2713 6618,2695 6635,2679 6651,2667 6675,2651 6683,2646 6686,2644 6686,2643 6687,2642 6623,2662 6626,2657 6630,2651 6640,2638 6651,2624 6664,2610 6690,2584 6711,2564 6732,2547 6752,2534 6770,2523 6785,2515 6810,2503 6818,2499 6821,2497 6822,2496 6823,2495 6819,2492 6814,2490 6810,2487 6805,2486 6794,2482 6782,2480 6736,2474 6736,2466 6736,2465 6736,2465 6736,2464 6736,2464 6736,2464 6736,2464 6737,2463 6737,2463 6737,2463 6737,2463 6737,2463 6737,2463 6737,2462 6736,2460 6735,2457 6598,2490 6600,2485 6602,2480 6606,2473 6607,2469 6608,2465 6609,2462 6609,2460 6610,2454 6604,2460 6597,2464 6591,2468 6585,2471 6553,2484 6545,2488 6538,2492 6532,2496 6526,2500 6514,2509 6508,2513 6501,2517 6510,2494 6503,2498 6495,2503 6475,2516 6453,2532 6430,2551 6408,2569 6389,2587 6381,2594 6374,2602 6370,2608 6368,2611 6367,2613 6368,2610 6368,2609 6368,2608 6369,2608 6369,2608 6369,2608 6369,2608 6369,2608 6369,2608 6369,2608 6369,2608 6369,2608 6369,2608 6369,2608 6369,2609 6369,2609 6369,2609 6369,2609 6369,2609 6369,2609 6369,2609 6369,2609 6369,2609 6369,2609 6369,2609 6369,2608 6369,2607 6370,2603 6371,2598 6371,2597 6371,2596 6371,2596 6371,2596 6371,2596 6371,2596 6371,2596 6371,2596 6370,2596 6370,2595 6370,2595 6369,2595 6369,2594 6358,2605 6348,2615 6338,2625 6327,2636 6323,2641 6319,2647 6312,2660 6308,2666 6304,2672 6299,2678 6294,2684 6291,2683 6289,2681 6284,2678 6280,2674 6275,2670 6260,2654 6297,2664 6292,2660 6287,2656 6278,2648 6267,2640 6255,2629 6240,2612 6226,2594 6220,2585 6214,2576 6209,2566 6204,2556 6200,2546 6196,2535 6194,2524 6192,2513 6190,2501 6190,2489 6190,2476 6191,2463 6211,2496 6205,2454 6202,2432 6201,2421 6201,2409 6201,2397 6202,2385 6204,2363 6206,2340 6206,2328 6206,2314 6209,2316 6212,2318 6217,2322 6225,2330 6230,2334 6232,2336 6234,2337 6236,2339 6239,2340 6241,2340 6244,2341 6239,2335 6234,2328 6229,2322 6226,2315 6222,2308 6219,2300 6214,2284 6198,2210 6194,2195 6188,2178 6182,2161 6174,2144 6167,2128 6159,2113 6151,2100 6148,2095 6144,2090 6179,2100 6171,2093 6162,2084 6154,2075 6146,2065 6115,2026 6107,2017 6097,2008 6077,1991 6067,1982 6058,1974 6050,1966 6046,1961 6043,1957 6046,1952 6050,1947 6059,1935 6071,1922 6084,1909 6097,1895 6110,1884 6123,1874 6133,1866 6143,1860 6153,1856 6163,1852 6173,1848 6192,1843 6212,1840 6247,1835 6255,1834 6262,1832 6268,1830 6274,1827 6262,1826 6256,1825 6252,1825 6247,1824 6243,1823 6239,1821 6234,1819 6288,1816 6303,1815 6316,1813 6322,1812 6328,1810 6332,1809 6336,1807 6333,1805 6330,1804 6328,1803 6326,1803 6315,1800 6295,1788 6337,1789 6355,1790 6370,1792 6383,1795 6395,1799 6406,1803 6416,1807 6455,1828 6479,1839 6509,1850 6491,1830 6502,1831 6512,1833 6522,1836 6531,1839 6540,1844 6549,1849 6566,1860 6596,1883 6611,1893 6618,1897 6625,1900 6622,1893 6619,1887 6615,1880 6610,1874 6600,1862 6589,1849 6568,1825 6558,1813 6554,1807 6551,1801 6558,1804 6565,1807 6581,1815 6589,1819 6597,1822 6600,1823 6604,1824 6608,1825 6611,1825 6605,1819 6599,1812 6585,1800 6553,1776 6537,1764 6522,1751 6515,1745 6509,1738 6503,1732 6498,1725 6544,1726 6542,1724 6540,1722 6534,1718 6518,1708 6501,1699 6493,1694 6487,1690 6472,1681 6457,1672 6451,1667 6444,1662 6438,1657 6436,1654 6433,1651 6486,1661 6484,1659 6483,1657 6482,1656 6482,1656 6482,1656 6482,1656 6482,1656 6481,1655 6476,1652 6476,1652 6475,1652 6474,1651 6472,1650 6469,1648 6468,1647 6467,1647 6467,1647 6447,1636 6412,1615 6409,1613 6406,1612 6398,1609 6379,1602 6361,1596 6354,1593 6352,1591 6350,1590 6347,1587 6345,1587 6345,1586 6345,1586 6345,1586 6345,1586 6344,1586 6344,1586 6344,1586 6344,1586 6344,1586 6344,1586 6344,1586 6344,1586 6344,1587 6345,1587 6345,1587 6345,1587 6345,1587 6345,1587 6346,1587 6346,1587 6346,1587 6347,1587 6347,1587 6347,1586 6347,1586 6348,1586 6348,1585 6348,1584 6348,1582 6348,1580 6255,1552 6297,1542 6290,1538 6282,1536 6274,1534 6265,1532 6256,1531 6247,1531 6227,1531 6152,1537 6170,1516 6160,1519 6149,1522 6125,1529 6101,1535 6091,1539 6081,1543 6062,1553 6043,1565 6024,1575 6015,1580 6006,1584 6015,1543 5996,1566 5994,1568 5991,1571 5987,1575 5982,1578 5980,1581 5977,1583 5967,1591 5958,1599 5939,1615 5918,1632 5909,1639 5897,1650 5890,1658 5881,1668 5865,1687 5874,1660 5871,1662 5867,1666 5858,1674 5849,1685 5840,1696 5821,1719 5808,1738 5800,1749 5793,1761 5781,1784 5769,1806 5762,1818 5755,1829 5733,1830 5726,1829 5720,1828 5716,1828 5715,1827 5713,1826 5712,1826 5712,1825 5711,1825 5711,1824 5710,1823 5710,1823 5710,1822 5710,1821 5709,1821 5709,1821 5709,1821 5709,1820 5709,1820 5708,1820 5707,1820 5706,1820 5705,1820 5702,1821 5697,1822 5694,1823 5692,1824 5688,1825 5687,1826 5684,1827 5682,1827 5678,1828 5678,1788 5676,1791 5674,1794 5673,1796 5672,1798 5669,1809 5657,1830 5655,1771 5650,1695 5646,1656 5640,1620 5634,1590 5630,1578 5626,1568 5622,1627 5598,1563 5590,1542 5583,1526 5578,1518 5574,1511 5562,1496 5522,1451 5516,1445 5511,1439 5502,1426 5481,1398 5481,1417 5441,1376 5431,1366 5422,1354 5413,1343 5404,1330 5402,1341 5402,1341 5402,1341 5402,1342 5401,1342 5401,1342 5401,1342 5401,1343 5401,1344 5401,1344 5401,1345 5398,1358 5396,1356 5394,1353 5389,1348 5383,1343 5375,1337 5358,1325 5337,1313 5316,1301 5295,1291 5276,1283 5268,1280 5260,1278 5262,1281 5263,1284 5264,1286 5266,1287 5272,1295 5195,1287 5157,1284 5136,1284 5112,1284 5114,1287 5115,1288 5115,1288 5115,1288 5120,1291 5135,1300 5104,1306 5088,1310 5071,1315 5055,1320 5041,1326 5034,1329 5028,1333 5022,1337 5017,1341 5043,1347 5038,1353 5032,1358 5019,1370 4990,1394 4975,1407 4962,1419 4957,1425 4952,1431 4948,1437 4945,1443 4956,1440 4966,1436 4986,1427 5005,1418 5027,1409 5039,1405 5051,1401 5065,1399 5080,1397 5097,1396 5115,1397 5136,1399 5158,1402 5111,1417 5128,1418 5144,1419 5159,1421 5174,1424 5187,1428 5200,1432 5212,1437 5223,1443 5234,1449 5244,1455 5263,1469 5281,1485 5298,1501 5296,1501 5294,1502 5292,1501 5291,1501 5290,1501 5289,1501 5289,1500 5289,1500 5289,1500 5288,1500 5288,1500 5288,1500 5288,1500 5288,1500 5288,1500 5288,1501 5288,1501 5287,1504 5286,1509 5294,1515 5301,1521 5318,1538 5334,1557 5350,1578 5365,1600 5379,1622 5390,1644 5394,1654 5398,1663 5395,1664 5395,1664 5395,1664 5394,1664 5394,1664 5394,1664 5394,1664 5394,1664 5394,1664 5394,1664 5395,1664 5395,1664 5395,1664 5395,1664 5396,1663 5396,1663 5396,1663 5396,1663 5396,1663 5396,1663 5396,1663 5396,1663 5396,1663 5396,1662 5396,1662 5396,1662 5395,1662 5394,1662 5392,1662 5386,1662 5381,1663 5383,1665 5385,1668 5388,1673 5391,1680 5393,1688 5397,1705 5401,1725 5403,1745 5404,1764 5405,1797 5401,1792 5397,1787 5390,1777 5386,1772 5383,1767 5379,1762 5376,1760 5374,1758 5375,1767 5376,1775 5379,1794 5383,1813 5384,1823 5385,1832 5387,1858 5388,1887 5388,1919 5386,1952 5382,1984 5375,2014 5371,2028 5367,2040 5361,2051 5355,2061 5343,2013 5340,2001 5336,1990 5332,1980 5328,1971 5331,1980 5333,1990 5334,1999 5335,2010 5335,2031 5334,2052 5332,2074 5329,2095 5322,2134 5321,2135 5320,2135 5320,2136 5319,2136 5319,2136 5319,2136 5319,2137 5319,2137 5319,2137 5319,2137 5319,2137 5319,2137 5320,2137 5320,2137 5320,2138 5321,2138 5321,2138 5322,2138 5322,2138 5322,2138 5323,2138 5323,2137 5324,2137 5324,2137 5324,2137 5324,2137 5324,2137 5324,2136 5324,2136 5324,2136 5324,2136 5324,2135 5323,2135 5323,2134 5321,2133 5319,2131 5317,2130 5316,2129 5316,2128 5316,2128 5315,2128 5315,2127 5315,2127 5315,2127 5315,2127 5315,2127 5315,2127 5316,2127 5316,2127 5316,2127 5316,2126 5316,2126 5317,2126 5317,2126 5317,2126 5318,2126 5318,2127 5318,2127 5318,2127 5319,2127 5319,2127 5319,2127 5319,2127 5319,2127 5319,2128 5319,2128 5319,2128 5318,2128 5318,2129 5317,2129 5317,2129 5315,2130 5311,2150 5304,2172 5295,2195 5284,2218 5271,2239 5264,2249 5257,2258 5249,2266 5241,2273 5233,2279 5224,2283 5218,2285 5215,2287 5214,2287 5214,2287 5214,2287 5214,2287 5214,2287 5214,2287 5214,2287 5214,2287 5214,2287 5214,2287 5215,2287 5215,2287 5216,2286 5216,2286 5216,2286 5216,2286 5216,2285 5216,2285 5216,2285 5216,2285 5216,2285 5216,2285 5216,2285 5215,2285 5215,2284 5214,2284 5212,2284 5207,2283 5202,2282 5192,2280 5187,2278 5182,2278 5179,2278 5177,2278 5175,2278 5173,2278 5182,2252 5172,2258 5161,2261 5151,2263 5141,2264 5132,2263 5123,2260 5113,2257 5104,2253 5086,2243 5069,2233 5051,2223 5042,2218 5033,2215 5031,2214 5028,2213 5022,2209 5015,2205 5008,2199 4992,2185 4976,2169 4960,2152 4946,2135 4934,2119 4925,2106 4967,2190 4964,2189 4961,2189 4958,2188 4955,2186 4948,2183 4941,2180 4928,2172 4917,2164 4904,2156 4899,2152 4896,2150 4894,2148 4892,2146 4891,2143 4890,2140 4888,2137 4888,2133 4887,2129 4887,2124 4887,2118 4883,2124 4881,2127 4881,2128 4881,2129 4880,2129 4880,2129 4880,2129 4880,2129 4880,2129 4880,2129 4880,2129 4880,2129 4880,2129 4880,2129 4879,2129 4878,2129 4876,2129 4875,2129 4872,2130 4861,2117 4850,2105 4827,2082 4815,2069 4803,2055 4790,2038 4776,2017 4764,1997 4761,1992 4757,1987 4754,1982 4750,1978 4756,2026 4751,2022 4746,2017 4740,2011 4734,2004 4722,1988 4710,1970 4699,1952 4690,1935 4683,1920 4681,1913 4680,1908 4678,1909 4676,1911 4675,1912 4675,1914 4674,1915 4674,1916 4673,1917 4673,1918 4673,1918 4673,1918 4673,1918 4673,1918 4673,1919 4673,1919 4673,1919 4673,1919 4673,1919 4673,1918 4672,1918 4672,1917 4669,1915 4667,1913 4665,1910 4663,1907 4662,1903 4659,1893 4656,1881 4653,1854 4650,1824 4648,1729 4646,1729 4646,1729 4645,1729 4645,1729 4645,1729 4645,1729 4644,1729 4644,1729 4644,1729 4644,1729 4643,1730 4643,1730 4641,1732 4637,1737 4637,1717 4638,1698 4641,1682 4644,1666 4648,1652 4652,1639 4657,1627 4663,1617 4705,1554 4678,1565 4680,1561 4683,1557 4687,1552 4691,1547 4700,1538 4711,1528 4722,1519 4733,1510 4745,1502 4755,1495 4772,1486 4788,1479 4804,1473 4819,1469 4844,1463 4853,1459 4858,1458 4861,1456 4859,1455 4857,1454 4851,1452 4844,1451 4836,1450 4817,1449 4796,1449 4754,1450 4736,1451 4722,1451 4739,1426 4730,1427 4721,1429 4713,1431 4705,1434 4690,1440 4676,1447 4650,1462 4637,1470 4624,1476 4635,1451 4630,1453 4623,1457 4616,1462 4608,1469 4592,1483 4574,1500 4558,1518 4543,1535 4531,1551 4527,1557 4524,1563 4523,1562 4523,1562 4523,1562 4522,1561 4522,1561 4522,1561 4522,1561 4522,1560 4522,1560 4522,1560 4521,1559 4521,1559 4521,1559 4520,1558 4520,1558 4520,1558 4520,1558 4520,1557 4520,1557 4520,1557 4515,1545 4512,1553 4509,1561 4502,1578 4495,1594 4488,1611 4483,1628 4478,1645 4473,1661 4470,1669 4467,1677 4441,1561 4441,1619 4439,1617 4438,1616 4438,1615 4438,1615 4437,1614 4436,1613 4434,1608 4429,1586 4423,1562 4416,1537 4400,1490 4364,1397 4356,1409 4328,1371 4328,1371 4328,1371 4328,1371 4327,1371 4327,1371 4327,1372 4326,1372 4326,1372 4325,1373 4325,1373 4324,1374 4323,1374 4323,1374 4322,1375 4322,1375 4322,1375 4322,1376 4322,1376 4322,1376 4322,1376 4322,1377 4322,1377 4322,1377 4322,1377 4322,1377 4322,1377 4322,1377 4322,1377 4322,1377 4322,1377 4322,1377 4322,1377 4322,1377 4322,1377 4322,1377 4322,1377 4322,1377 4322,1377 4321,1376 4320,1375 4317,1373 4313,1370 4309,1367 4298,1356 4267,1325 4248,1308 4227,1291 4216,1284 4204,1277 4192,1270 4179,1265 4192,1282 4195,1286 4198,1291 4201,1297 4204,1304 4170,1291 4135,1276 4117,1268 4101,1259 4087,1250 4080,1245 4074,1240 Z"/>
      </g>
      <path fill="none" stroke="rgb(255,255,255)" stroke-width="8" stroke-linejoin="miter" d="M 5970,2337 C 5972,2395 5975,2331 5981,2372 5982,2437 5986,2513 6002,2573 6013,2616 6044,2695 6081,2717 6074,2704 6067,2687 6064,2669 6148,2748 6223,2741 6245,2759 6233,2777 6208,2810 6193,2819 L 6203,2787 C 6189,2798 6181,2816 6170,2829 6149,2851 6072,2909 6043,2918 6050,2902 6068,2887 6077,2872 6034,2885 5957,2978 5737,2920 5757,2906 5833,2873 5852,2829 L 5822,2842 C 5881,2762 5945,2629 5954,2517 5957,2467 5966,2429 5971,2384 5956,2397 5963,2403 5948,2418 5949,2376 5947,2315 5966,2282 5969,2303 5970,2315 5970,2337 Z"/>
      <path fill="none" stroke="rgb(255,255,255)" stroke-width="8" stroke-linejoin="miter" d="M 5571,2337 C 5577,2308 5597,2264 5610,2238 5625,2207 5633,2209 5647,2186 5657,2170 5653,2171 5669,2163 L 5672,2192 5661,2192 C 5660,2192 5659,2193 5659,2192 5658,2191 5657,2192 5656,2192 5670,2285 5694,2434 5674,2530 5671,2525 5670,2520 5667,2516 5660,2502 5668,2511 5656,2503 5661,2633 5628,2747 5510,2764 5517,2746 5521,2744 5533,2733 5491,2733 5398,2839 5398,2693 5412,2679 5432,2665 5445,2653 5475,2626 5544,2527 5554,2503 L 5525,2522 C 5537,2490 5555,2460 5563,2422 5573,2379 5584,2351 5597,2314 5584,2324 5585,2328 5571,2337 Z"/>
      <path fill="none" stroke="rgb(255,255,255)" stroke-width="8" stroke-linejoin="miter" d="M 4723,2475 C 4700,2472 4698,2454 4681,2449 4645,2438 4593,2366 4587,2328 L 4587,2367 C 4572,2356 4562,2334 4554,2317 4547,2300 4539,2282 4533,2261 4522,2223 4512,2170 4510,2128 L 4587,2220 4556,2209 4663,2320 C 4656,2324 4652,2317 4643,2321 4665,2344 4702,2366 4732,2382 L 4723,2475 Z"/>
      <path fill="none" stroke="rgb(255,255,255)" stroke-width="8" stroke-linejoin="miter" d="M 4074,1240 C 4086,1271 4098,1268 4115,1295 4082,1286 4054,1272 4015,1269 4022,1281 4014,1270 4022,1278 L 4027,1283 C 4069,1320 4137,1384 4148,1442 4154,1471 4151,1443 4144,1456 L 4142,1462 C 4143,1472 4202,1540 4198,1749 4188,1738 4183,1719 4175,1708 L 4189,1926 4163,1895 C 4181,1944 4208,2022 4205,2081 4184,2062 4176,2050 4159,2032 4114,1985 4055,1952 3998,1919 3992,1928 4003,1927 3993,1928 3982,1929 3960,1913 3950,1909 3899,1889 3849,1887 3817,1857 3801,1841 3760,1803 3736,1797 3701,1788 3745,1812 3712,1794 3692,1784 3675,1772 3652,1761 3584,1727 3581,1754 3551,1676 3546,1688 3552,1709 3551,1728 3507,1686 3460,1577 3416,1541 L 3421,1571 C 3394,1558 3371,1527 3341,1519 3346,1529 3348,1527 3354,1536 3388,1578 3396,1641 3406,1694 3417,1747 3438,1842 3441,1892 L 3425,1873 C 3430,1909 3464,1972 3458,2001 3458,2002 3457,2003 3457,2004 L 3458,2018 C 3473,2086 3497,2155 3525,2218 3538,2246 3571,2300 3577,2320 L 3554,2308 C 3561,2327 3603,2391 3618,2412 3636,2439 3679,2484 3689,2505 3646,2502 3602,2492 3557,2498 3571,2507 3573,2506 3586,2518 3525,2524 3431,2537 3397,2575 L 3418,2582 C 3419,2581 3421,2583 3422,2583 3384,2595 3336,2633 3314,2664 3293,2694 3329,2654 3305,2698 3277,2752 3276,2852 3285,2919 3293,2916 3289,2915 3295,2905 3321,2871 3353,2833 3392,2814 3375,2849 3365,2843 3345,2866 3384,2861 3485,2795 3557,2782 3538,2798 3522,2800 3509,2824 3552,2820 3595,2805 3638,2809 3621,2819 3592,2828 3583,2843 3645,2839 3683,2845 3733,2865 L 3711,2873 C 3732,2879 3819,2915 3835,2926 L 3797,2938 C 3842,2961 3867,2950 3911,2987 3927,3000 3940,3012 3957,3025 3971,3036 3988,3051 4000,3060 L 3937,3044 C 3974,3083 4035,3106 4089,3120 4109,3125 4127,3134 4146,3139 L 4117,3148 C 4173,3160 4204,3168 4266,3173 4253,3186 4245,3182 4232,3191 4297,3196 4264,3184 4316,3216 4335,3228 4363,3245 4387,3254 L 4362,3260 C 4375,3268 4390,3270 4405,3273 4444,3281 4434,3281 4436,3286 L 4542,3294 4656,3286 C 4665,3280 4714,3259 4723,3257 L 4897,3144 C 4855,3143 4916,3069 4933,3061 4935,3051 4931,3060 4935,3061 4946,3065 4928,3066 4940,3063 4953,3026 4957,3025 4979,3000 5001,2974 5016,2974 5060,2985 5101,2995 5168,3029 5199,3049 L 5663,3094 C 5689,3104 5731,3134 5744,3133 5761,3132 5848,3191 5893,3205 5967,3228 6132,3247 6197,3209 L 6166,3205 C 6226,3197 6299,3168 6347,3143 6418,3107 6441,3085 6486,3040 L 6449,3049 C 6477,2937 6543,2848 6548,2836 6531,2839 6519,2850 6506,2857 6522,2819 6559,2769 6582,2736 6631,2670 6682,2650 6687,2642 L 6623,2662 C 6637,2635 6689,2584 6711,2564 6769,2515 6814,2504 6823,2495 6802,2479 6764,2478 6736,2474 L 6736,2466 C 6736,2461 6739,2467 6735,2457 L 6598,2490 C 6603,2475 6609,2471 6610,2454 6592,2471 6581,2472 6553,2484 6531,2494 6519,2506 6501,2517 L 6510,2494 C 6478,2510 6376,2589 6367,2613 6370,2601 6368,2616 6370,2603 6371,2593 6371,2598 6369,2594 6354,2610 6342,2619 6327,2636 6316,2650 6308,2669 6294,2684 6280,2677 6269,2663 6260,2654 L 6297,2664 C 6284,2652 6272,2645 6255,2629 6212,2585 6183,2534 6191,2463 L 6211,2496 C 6207,2467 6201,2442 6201,2409 6201,2375 6207,2352 6206,2314 6222,2323 6229,2339 6244,2341 6213,2309 6211,2265 6198,2210 6188,2172 6163,2112 6144,2090 L 6179,2100 C 6157,2083 6133,2048 6115,2026 6094,2001 6058,1980 6043,1957 6057,1933 6108,1882 6133,1866 6184,1833 6245,1843 6274,1827 6255,1825 6247,1826 6234,1819 6260,1817 6318,1817 6336,1807 6327,1802 6325,1803 6315,1800 L 6295,1788 C 6423,1785 6418,1821 6509,1850 L 6491,1830 C 6549,1831 6587,1886 6625,1900 6612,1864 6567,1834 6551,1801 6569,1807 6593,1824 6611,1825 6583,1790 6523,1762 6498,1725 L 6544,1726 C 6536,1717 6501,1700 6487,1690 6467,1678 6446,1667 6433,1651 L 6486,1661 C 6479,1653 6486,1659 6476,1652 6475,1651 6468,1648 6467,1647 6458,1642 6456,1641 6447,1636 6434,1628 6424,1622 6412,1615 6398,1607 6358,1597 6350,1590 6338,1580 6349,1595 6348,1580 L 6255,1552 6297,1542 C 6262,1521 6193,1535 6152,1537 L 6170,1516 C 6144,1525 6105,1532 6081,1543 6055,1556 6030,1574 6006,1584 L 6015,1543 5996,1566 C 5989,1573 5984,1576 5977,1583 5964,1593 5951,1605 5939,1615 5920,1630 5915,1633 5897,1650 5889,1658 5873,1677 5865,1687 L 5874,1660 C 5857,1671 5821,1719 5808,1738 5786,1768 5775,1799 5755,1829 5684,1833 5727,1814 5697,1822 5688,1825 5689,1826 5678,1828 L 5678,1788 C 5671,1798 5673,1798 5669,1809 L 5657,1830 C 5656,1772 5649,1614 5626,1568 L 5622,1627 C 5579,1514 5593,1529 5522,1451 5506,1434 5497,1419 5481,1398 L 5481,1417 C 5454,1389 5426,1365 5404,1330 L 5402,1341 C 5401,1342 5401,1344 5401,1345 L 5398,1358 C 5383,1334 5297,1288 5260,1278 5265,1288 5266,1287 5272,1295 5212,1289 5180,1282 5112,1284 5117,1290 5113,1286 5120,1291 L 5135,1300 C 5097,1308 5042,1317 5017,1341 L 5043,1347 C 5019,1376 4958,1412 4945,1443 5004,1428 5033,1380 5158,1402 L 5111,1417 C 5205,1418 5254,1457 5298,1501 5284,1504 5291,1493 5286,1509 5325,1536 5381,1615 5398,1663 5387,1666 5407,1661 5386,1662 L 5381,1663 C 5401,1684 5405,1762 5405,1797 5393,1785 5387,1769 5374,1758 5375,1780 5383,1808 5385,1832 5392,1894 5390,2014 5355,2061 5348,2033 5339,1992 5328,1971 5343,2018 5332,2086 5322,2134 5312,2139 5333,2140 5319,2131 5308,2124 5326,2126 5315,2130 5307,2179 5270,2264 5224,2283 5203,2291 5224,2285 5212,2284 5200,2282 5183,2276 5173,2278 L 5182,2252 C 5125,2288 5081,2231 5033,2215 5007,2207 4943,2136 4925,2106 L 4967,2190 C 4952,2188 4930,2173 4917,2164 4897,2151 4886,2150 4887,2118 4874,2136 4887,2126 4872,2130 4842,2092 4814,2077 4776,2017 4769,2005 4760,1988 4750,1978 L 4756,2026 C 4731,2010 4684,1933 4680,1908 4668,1916 4678,1923 4669,1915 4646,1896 4649,1754 4648,1729 4643,1728 4645,1728 4637,1737 4634,1625 4686,1589 4705,1554 L 4678,1565 C 4688,1544 4729,1511 4755,1495 4800,1468 4844,1466 4861,1456 4842,1443 4752,1452 4722,1451 L 4739,1426 C 4689,1432 4659,1460 4624,1476 L 4635,1451 C 4609,1460 4536,1536 4524,1563 4523,1562 4522,1561 4522,1560 4521,1559 4520,1558 4520,1557 L 4515,1545 C 4508,1566 4496,1589 4488,1611 4480,1633 4475,1657 4467,1677 L 4441,1561 4441,1619 C 4437,1615 4438,1616 4434,1608 L 4429,1586 C 4416,1520 4386,1460 4364,1397 L 4356,1409 4328,1371 C 4327,1371 4325,1373 4325,1373 4316,1377 4329,1380 4317,1373 4300,1363 4247,1291 4179,1265 4190,1280 4195,1283 4204,1304 4162,1289 4104,1266 4074,1240 Z"/>
     </g>
    </g>
    <g class="com.sun.star.drawing.ClosedBezierShape">
     <g id="id57">
      <rect class="BoundingBox" stroke="none" fill="none" x="4950" y="1950" width="463" height="1115"/>
      <path fill="rgb(19,21,16)" stroke="none" d="M 5372,3051 C 5370,3019 5375,3007 5369,2957 5360,2875 5322,2772 5283,2704 5271,2683 5262,2663 5248,2641 5242,2632 5235,2620 5230,2611 5199,2554 5082,2386 5070,2358 5066,2352 5064,2352 5059,2345 L 5007,2251 C 4975,2186 4939,2097 4960,2020 4965,2005 4982,1960 4992,1956 4993,2016 4994,2063 5019,2120 5041,2168 5062,2203 5092,2242 L 5135,2295 C 5150,2314 5165,2331 5179,2347 5321,2512 5427,2648 5404,2890 5402,2921 5384,3032 5372,3051 Z"/>
      <path fill="none" stroke="rgb(255,255,255)" stroke-width="8" stroke-linejoin="miter" d="M 5372,3051 C 5370,3019 5375,3007 5369,2957 5360,2875 5322,2772 5283,2704 5271,2683 5262,2663 5248,2641 5242,2632 5235,2620 5230,2611 5199,2554 5082,2386 5070,2358 5066,2352 5064,2352 5059,2345 L 5007,2251 C 4975,2186 4939,2097 4960,2020 4965,2005 4982,1960 4992,1956 4993,2016 4994,2063 5019,2120 5041,2168 5062,2203 5092,2242 L 5135,2295 C 5150,2314 5165,2331 5179,2347 5321,2512 5427,2648 5404,2890 5402,2921 5384,3032 5372,3051 Z"/>
     </g>
    </g>
    <g class="com.sun.star.drawing.OpenBezierShape">
     <g id="id58">
      <rect class="BoundingBox" stroke="none" fill="none" x="4494" y="1460" width="505" height="1240"/>
      <path fill="none" stroke="rgb(19,21,16)" stroke-width="25" stroke-linejoin="miter" d="M 4702,1471 C 4702,1471 4244,1806 4732,2200 5221,2594 4850,2806 4848,2615"/>
     </g>
    </g>
    <g class="com.sun.star.drawing.OpenBezierShape">
     <g id="id59">
      <rect class="BoundingBox" stroke="none" fill="none" x="3375" y="2596" width="1208" height="482"/>
      <path fill="none" stroke="rgb(19,21,16)" stroke-width="25" stroke-linejoin="miter" d="M 3384,2722 C 3384,2722 3610,2489 3916,2692 4223,2896 4147,3122 4579,3051"/>
     </g>
    </g>
    <g class="com.sun.star.drawing.OpenBezierShape">
     <g id="id60">
      <rect class="BoundingBox" stroke="none" fill="none" x="3447" y="1719" width="1168" height="1149"/>
      <path fill="none" stroke="rgb(19,21,16)" stroke-width="25" stroke-linejoin="miter" d="M 3460,1723 C 3460,1723 3563,2133 4036,2279 4510,2426 4450,2886 4611,2852"/>
     </g>
    </g>
    <g class="com.sun.star.drawing.OpenBezierShape">
     <g id="id61">
      <rect class="BoundingBox" stroke="none" fill="none" x="4143" y="1322" width="558" height="1408"/>
      <path fill="none" stroke="rgb(19,21,16)" stroke-width="25" stroke-linejoin="miter" d="M 4149,1334 C 4149,1334 4342,1433 4325,1723 4308,2012 4332,2047 4415,2177 4499,2306 4708,2581 4685,2727"/>
     </g>
    </g>
    <g class="com.sun.star.drawing.OpenBezierShape">
     <g id="id62">
      <rect class="BoundingBox" stroke="none" fill="none" x="5125" y="1340" width="423" height="1162"/>
      <path fill="none" stroke="rgb(19,21,16)" stroke-width="25" stroke-linejoin="miter" d="M 5129,1353 C 5129,1353 5583,1350 5530,1792 5477,2235 5266,2493 5266,2493"/>
     </g>
    </g>
    <g class="com.sun.star.drawing.OpenBezierShape">
     <g id="id63">
      <rect class="BoundingBox" stroke="none" fill="none" x="5301" y="1659" width="1088" height="914"/>
      <path fill="none" stroke="rgb(19,21,16)" stroke-width="25" stroke-linejoin="miter" d="M 6380,1729 C 6380,1729 6084,1524 5894,1889 5703,2256 5564,1860 5313,2567"/>
     </g>
    </g>
    <g class="com.sun.star.drawing.OpenBezierShape">
     <g id="id64">
      <rect class="BoundingBox" stroke="none" fill="none" x="5818" y="1987" width="422" height="726"/>
      <path fill="none" stroke="rgb(19,21,16)" stroke-width="25" stroke-linejoin="miter" d="M 5819,2000 C 5819,2000 6195,2027 6064,2318 5935,2609 6176,2713 6235,2698"/>
     </g>
    </g>
    <g class="com.sun.star.drawing.OpenBezierShape">
     <g id="id65">
      <rect class="BoundingBox" stroke="none" fill="none" x="5380" y="1988" width="513" height="988"/>
      <path fill="none" stroke="rgb(19,21,16)" stroke-width="25" stroke-linejoin="miter" d="M 5383,2958 C 5383,2958 5639,3008 5773,2731 5906,2454 5905,2029 5821,2000"/>
     </g>
    </g>
    <g class="com.sun.star.drawing.OpenBezierShape">
     <g id="id66">
      <rect class="BoundingBox" stroke="none" fill="none" x="5376" y="2525" width="1251" height="577"/>
      <path fill="none" stroke="rgb(19,21,16)" stroke-width="25" stroke-linejoin="miter" d="M 5377,3010 L 5705,2989 C 5705,2989 6326,3238 6318,2948 6310,2659 6561,2547 6624,2538"/>
     </g>
    </g>
    <g class="com.sun.star.drawing.ClosedBezierShape">
     <g id="id67">
      <rect class="BoundingBox" stroke="none" fill="none" x="4566" y="1970" width="776" height="1158"/>
      <path fill="rgb(19,21,16)" stroke="none" d="M 4934,2572 C 4939,2577 4994,2674 4995,2680 4955,2688 4891,2715 4858,2733 4812,2758 4778,2784 4751,2820 4708,2876 4692,2943 4704,3007 L 4632,3013 4635,3105 C 4629,3099 4622,3096 4614,3094 4606,3091 4598,3090 4590,3090 L 4589,3090 C 4549,2969 4574,2840 4643,2752 4667,2721 4699,2689 4732,2666 4767,2642 4808,2620 4848,2604 4865,2597 4918,2574 4934,2572 Z M 4934,2572 L 4934,2572 Z M 5266,3118 C 5248,3113 5262,3082 5255,3066 5249,3051 5240,3037 5229,3026 5220,3018 5210,3011 5199,3007 5191,2917 5135,2822 5102,2763 4991,2563 4725,2242 4893,2027 4904,2013 4928,1986 4940,1979 4929,2012 4919,2018 4915,2068 4910,2132 4934,2201 4959,2257 5001,2349 5081,2465 5137,2549 5183,2617 5233,2697 5270,2770 5320,2870 5355,2987 5325,3097 5324,3097 5322,3098 5321,3098 5307,3104 5298,3126 5284,3122 L 5266,3118 Z"/>
      <path fill="none" stroke="rgb(255,255,255)" stroke-width="8" stroke-linejoin="miter" d="M 4934,2572 C 4939,2577 4994,2674 4995,2680 4955,2688 4891,2715 4858,2733 4812,2758 4778,2784 4751,2820 4708,2876 4692,2943 4704,3007 L 4632,3013 4635,3105 C 4629,3099 4622,3096 4614,3094 4606,3091 4598,3090 4590,3090 L 4589,3090 C 4549,2969 4574,2840 4643,2752 4667,2721 4699,2689 4732,2666 4767,2642 4808,2620 4848,2604 4865,2597 4918,2574 4934,2572 Z"/>
      <path fill="none" stroke="rgb(255,255,255)" stroke-width="8" stroke-linejoin="miter" d="M 5266,3118 C 5248,3113 5262,3082 5255,3066 5249,3051 5240,3037 5229,3026 5220,3018 5210,3011 5199,3007 5191,2917 5135,2822 5102,2763 4991,2563 4725,2242 4893,2027 4904,2013 4928,1986 4940,1979 4929,2012 4919,2018 4915,2068 4910,2132 4934,2201 4959,2257 5001,2349 5081,2465 5137,2549 5183,2617 5233,2697 5270,2770 5320,2870 5355,2987 5325,3097 5324,3097 5322,3098 5321,3098 5307,3104 5298,3126 5284,3122 L 5266,3118 Z"/>
     </g>
    </g>
    <g class="Group">
     <g class="com.sun.star.drawing.ClosedBezierShape">
      <g id="id68">
       <rect class="BoundingBox" stroke="none" fill="none" x="3252" y="2943" width="3659" height="444"/>
       <path fill="rgb(19,21,16)" stroke="none" d="M 6645,3074 C 6650,3063 6660,3055 6673,3051 6688,3047 6704,3044 6720,3042 6735,3040 6750,3040 6766,3040 6782,3040 6798,3041 6813,3045 6831,3050 6847,3057 6862,3067 6877,3078 6889,3093 6897,3109 6907,3128 6910,3149 6910,3171 L 6910,3172 6906,3317 C 6905,3341 6887,3360 6863,3362 L 6786,3369 C 6777,3370 6768,3368 6760,3364 6747,3367 6734,3369 6720,3369 6704,3369 6689,3366 6674,3360 6670,3358 6666,3357 6662,3355 6655,3360 6647,3364 6637,3365 L 6556,3372 C 6548,3373 6541,3372 6535,3369 6528,3372 6521,3373 6513,3372 L 6432,3365 C 6418,3364 6405,3356 6397,3344 6394,3346 6391,3348 6388,3350 6369,3360 6347,3367 6325,3370 6304,3373 6282,3372 6260,3368 6242,3364 6225,3357 6209,3347 6201,3358 6189,3365 6175,3367 L 6091,3373 C 6083,3374 6076,3373 6069,3370 6063,3372 6056,3373 6049,3373 L 5966,3367 C 5951,3366 5938,3357 5930,3345 5927,3347 5925,3348 5922,3350 5903,3360 5881,3367 5859,3370 5838,3373 5816,3372 5794,3368 5773,3363 5753,3355 5735,3342 5732,3340 5729,3338 5726,3335 L 5706,3365 C 5698,3377 5687,3384 5673,3385 5659,3387 5646,3383 5636,3373 L 5618,3356 C 5612,3360 5605,3363 5598,3364 L 5497,3375 C 5483,3377 5471,3373 5461,3364 5458,3362 5456,3360 5454,3357 5449,3359 5443,3361 5438,3363 5415,3370 5391,3372 5368,3372 5345,3372 5323,3369 5302,3360 5283,3352 5265,3340 5250,3326 5244,3320 5239,3314 5234,3308 5232,3310 5229,3313 5227,3315 5206,3335 5182,3350 5156,3362 5154,3363 5153,3364 5151,3364 5149,3365 5146,3366 5144,3367 5134,3370 5122,3371 5112,3372 5096,3374 5080,3374 5064,3374 5040,3374 5016,3371 4992,3368 4984,3367 4977,3364 4971,3360 4967,3361 4963,3362 4959,3362 L 4882,3369 C 4873,3370 4864,3368 4856,3364 4843,3367 4830,3369 4817,3369 4800,3369 4785,3366 4770,3360 4764,3358 4759,3355 4753,3352 4746,3360 4735,3365 4723,3366 L 4648,3371 C 4640,3372 4632,3370 4625,3367 4613,3371 4600,3373 4586,3373 4567,3373 4548,3369 4530,3361 4520,3357 4512,3352 4503,3346 4496,3355 4484,3361 4472,3362 L 4394,3369 C 4385,3370 4376,3368 4369,3364 4356,3367 4342,3369 4329,3369 4313,3369 4297,3366 4282,3360 4271,3356 4261,3350 4252,3342 4244,3356 4230,3365 4214,3365 L 4102,3372 C 4088,3373 4074,3367 4065,3357 4058,3362 4050,3365 4041,3366 L 3959,3373 C 3946,3374 3934,3370 3924,3361 3918,3355 3914,3350 3912,3343 3904,3355 3892,3363 3877,3364 L 3796,3371 C 3782,3372 3771,3368 3761,3359 3760,3359 3759,3358 3759,3358 3754,3360 3749,3361 3744,3363 3721,3370 3697,3372 3674,3372 3651,3372 3629,3369 3608,3360 3588,3352 3571,3340 3556,3326 3550,3320 3545,3314 3540,3308 3538,3310 3535,3313 3533,3315 3512,3335 3488,3350 3462,3362 3460,3363 3459,3364 3457,3364 3455,3365 3452,3366 3449,3367 3440,3370 3428,3371 3418,3372 3402,3374 3386,3374 3370,3374 3346,3374 3322,3371 3298,3368 3275,3365 3258,3346 3258,3323 L 3252,3021 C 3252,2999 3267,2979 3289,2975 3324,2968 3360,2961 3395,2957 3406,2956 3417,2954 3428,2953 3454,2949 3480,2949 3505,2957 3528,2964 3549,2975 3566,2992 3583,3008 3595,3027 3604,3049 3605,3051 3605,3053 3606,3056 3607,3055 3608,3055 3609,3055 3628,3047 3649,3043 3671,3043 3701,3043 3730,3050 3756,3066 3764,3058 3774,3053 3785,3052 L 3864,3045 C 3873,3044 3882,3046 3889,3050 3895,3048 3902,3047 3908,3046 L 3909,3006 C 3909,2981 3928,2961 3953,2959 L 4041,2956 C 4055,2955 4067,2960 4076,2970 4086,2979 4091,2992 4090,3005 L 4087,3046 4128,3043 C 4138,3042 4148,3045 4156,3050 4164,3045 4174,3042 4185,3043 L 4268,3050 C 4272,3050 4276,3051 4279,3052 4280,3051 4281,3051 4281,3051 4297,3047 4312,3044 4328,3042 4343,3040 4359,3040 4374,3040 4390,3040 4406,3041 4422,3045 4439,3050 4455,3057 4470,3067 4476,3072 4482,3078 4488,3083 4499,3073 4512,3064 4526,3057 4545,3048 4566,3044 4588,3043 L 4586,3014 C 4586,2989 4604,2968 4629,2966 L 4718,2959 C 4731,2958 4743,2962 4753,2971 4763,2981 4768,2992 4768,3006 L 4768,3051 4769,3051 C 4784,3047 4800,3044 4816,3042 4831,3040 4846,3040 4862,3040 4878,3040 4894,3041 4910,3045 4923,3048 4935,3053 4946,3060 L 4946,3021 C 4945,2999 4961,2979 4983,2975 5018,2968 5054,2961 5089,2957 5100,2956 5111,2954 5122,2953 5148,2949 5174,2949 5199,2957 5222,2964 5243,2975 5260,2992 5277,3008 5290,3027 5298,3049 5299,3051 5300,3053 5300,3056 5301,3055 5302,3055 5303,3055 5323,3047 5343,3043 5365,3043 5391,3043 5416,3048 5440,3060 L 5439,3020 C 5438,2996 5456,2975 5480,2972 L 5593,2959 C 5602,2958 5611,2959 5620,2964 L 5621,2962 C 5630,2950 5642,2943 5657,2943 5672,2943 5685,2948 5694,2959 L 5770,3048 C 5771,3050 5773,3051 5774,3053 5787,3048 5800,3045 5814,3043 5836,3040 5858,3041 5879,3046 5898,3050 5917,3057 5933,3068 5941,3060 5951,3055 5963,3054 L 6044,3048 C 6053,3047 6061,3049 6069,3053 6080,3049 6092,3048 6104,3048 6121,3048 6137,3051 6152,3058 6166,3064 6178,3073 6187,3084 6196,3076 6207,3069 6217,3063 6237,3053 6258,3046 6280,3043 6302,3040 6324,3041 6345,3046 6360,3049 6374,3054 6388,3061 L 6387,3015 C 6387,2991 6406,2970 6430,2968 L 6516,2962 C 6530,2960 6542,2965 6552,2974 6562,2983 6567,2995 6566,3009 L 6565,3046 C 6567,3046 6568,3046 6569,3046 6585,3046 6602,3049 6617,3056 6627,3060 6637,3067 6645,3074 Z"/>
      </g>
     </g>
    </g>
    <g class="com.sun.star.drawing.ClosedBezierShape">
     <g id="id69">
      <rect class="BoundingBox" stroke="none" fill="none" x="3298" y="2989" width="3566" height="351"/>
      <path fill="rgb(255,255,255)" stroke="none" d="M 3298,3020 C 3344,3011 3378,3005 3400,3003 3423,3000 3434,2999 3434,2999 3455,2995 3474,2996 3491,3001 3508,3006 3522,3014 3533,3025 3545,3036 3554,3050 3560,3065 3566,3081 3570,3098 3570,3117 3571,3135 3569,3154 3564,3174 3560,3193 3552,3212 3541,3230 3531,3248 3517,3265 3501,3281 3484,3296 3464,3309 3442,3320 3442,3320 3440,3321 3435,3322 3431,3323 3423,3325 3412,3326 3402,3327 3388,3327 3370,3327 3352,3327 3330,3325 3304,3322 L 3298,3020 Z M 3298,3020 L 3298,3020 Z M 3397,3234 C 3411,3231 3423,3226 3432,3219 3442,3212 3448,3205 3453,3198 3458,3191 3461,3183 3463,3176 3465,3169 3466,3162 3466,3158 3466,3154 3466,3152 3466,3151 3466,3151 3465,3148 3465,3144 3464,3139 3462,3134 3460,3128 3457,3122 3453,3117 3449,3113 3444,3109 3438,3107 3430,3108 3422,3109 3412,3114 3401,3123 L 3397,3234 Z M 3397,3234 L 3397,3234 Z M 3778,3294 C 3762,3305 3746,3313 3730,3318 3713,3323 3695,3326 3673,3326 3656,3326 3640,3323 3625,3317 3611,3311 3598,3302 3588,3292 3577,3282 3569,3270 3563,3256 3557,3242 3554,3228 3554,3212 3554,3193 3557,3176 3564,3160 3570,3145 3578,3132 3589,3121 3599,3111 3611,3103 3625,3097 3639,3092 3654,3089 3670,3089 3696,3089 3718,3096 3737,3109 3756,3122 3770,3139 3779,3161 L 3664,3249 C 3667,3250 3671,3251 3675,3252 3680,3252 3684,3252 3688,3252 3700,3252 3710,3250 3718,3246 3726,3242 3733,3237 3740,3231 L 3778,3294 Z M 3778,3294 L 3778,3294 Z M 3696,3167 C 3692,3162 3688,3159 3684,3158 3680,3156 3675,3155 3669,3155 3664,3155 3660,3156 3655,3158 3651,3161 3647,3165 3644,3168 3641,3172 3639,3176 3637,3181 3636,3185 3635,3190 3635,3195 3635,3200 3635,3203 3636,3205 3636,3207 3637,3209 3638,3211 L 3696,3167 Z M 3696,3167 L 3696,3167 Z M 3867,3091 L 3867,3134 3868,3134 C 3875,3105 3894,3091 3926,3091 3933,3091 3939,3091 3945,3092 L 3925,3175 C 3924,3175 3922,3175 3920,3175 3918,3175 3915,3175 3912,3175 3901,3175 3892,3178 3884,3185 3876,3192 3872,3203 3872,3219 L 3872,3317 3791,3324 3789,3098 3867,3091 Z M 3867,3091 L 3867,3091 Z M 3955,3103 L 4041,3096 4037,3319 3955,3326 3955,3103 Z M 3955,3103 L 3955,3103 Z M 3955,3005 L 4043,3002 4038,3069 3954,3076 3955,3005 Z M 3955,3005 L 3955,3005 Z M 4131,3089 L 4153,3242 4154,3242 4179,3089 4264,3096 4211,3319 4099,3325 4049,3096 4131,3089 Z M 4131,3089 L 4131,3089 Z M 4390,3296 L 4389,3296 C 4382,3306 4373,3312 4363,3316 4352,3320 4341,3322 4328,3322 4318,3322 4308,3320 4299,3317 4290,3313 4282,3307 4275,3301 4268,3294 4262,3285 4258,3276 4254,3266 4252,3255 4252,3243 4252,3232 4254,3223 4258,3214 4262,3205 4268,3197 4275,3191 4282,3184 4290,3179 4300,3175 4310,3172 4320,3170 4331,3170 4343,3170 4353,3171 4361,3175 4369,3178 4376,3182 4382,3187 L 4382,3175 C 4382,3162 4378,3154 4370,3151 4363,3147 4353,3145 4340,3145 4329,3145 4318,3146 4309,3148 4299,3151 4289,3153 4279,3156 L 4294,3095 C 4306,3092 4319,3089 4333,3088 4346,3086 4359,3086 4373,3086 4386,3086 4398,3087 4410,3090 4422,3093 4433,3098 4442,3104 4451,3111 4458,3120 4464,3130 4469,3141 4472,3154 4472,3170 L 4467,3316 4390,3322 4390,3296 Z M 4390,3296 L 4390,3296 Z M 4341,3225 C 4332,3226 4325,3229 4319,3234 4314,3239 4311,3244 4312,3250 4313,3256 4317,3260 4323,3263 4329,3266 4338,3267 4348,3265 4358,3264 4365,3260 4370,3256 4375,3251 4377,3245 4376,3240 4375,3235 4372,3231 4366,3227 4360,3224 4352,3223 4341,3225 Z M 4341,3225 L 4341,3225 Z M 4719,3319 L 4644,3324 4644,3302 4643,3302 C 4637,3311 4629,3317 4618,3320 4607,3324 4597,3326 4586,3326 4573,3326 4560,3323 4548,3318 4536,3313 4525,3305 4515,3295 4506,3285 4498,3273 4493,3259 4487,3245 4484,3228 4484,3210 4484,3194 4487,3178 4491,3163 4496,3148 4503,3135 4512,3125 4521,3114 4532,3105 4545,3099 4558,3093 4574,3089 4590,3089 4599,3089 4607,3090 4615,3093 4623,3095 4630,3098 4636,3104 L 4632,3012 4721,3005 4719,3319 Z M 4719,3319 L 4719,3319 Z M 4613,3243 C 4618,3241 4623,3238 4627,3235 4631,3231 4634,3228 4636,3223 4638,3219 4640,3215 4640,3210 4640,3205 4639,3201 4638,3197 4636,3193 4634,3189 4631,3185 4628,3182 4624,3179 4619,3178 4615,3176 4610,3175 4605,3174 4600,3174 4594,3175 4589,3177 4583,3179 4578,3182 4574,3185 4570,3189 4567,3193 4565,3197 4563,3201 4561,3206 4561,3211 4561,3215 4562,3220 4563,3224 4565,3228 4567,3232 4570,3235 4573,3239 4577,3241 4582,3243 4586,3245 4591,3246 4596,3246 4601,3246 4607,3245 4613,3243 Z M 4613,3243 L 4613,3243 Z M 4878,3296 L 4877,3296 C 4870,3306 4861,3312 4851,3316 4840,3320 4828,3322 4816,3322 4806,3322 4796,3320 4787,3317 4778,3313 4769,3307 4763,3301 4756,3294 4750,3285 4746,3276 4742,3266 4740,3255 4740,3243 4740,3232 4742,3223 4746,3214 4750,3205 4756,3197 4763,3191 4770,3184 4778,3179 4788,3175 4797,3172 4808,3170 4819,3170 4831,3170 4841,3171 4849,3175 4857,3178 4864,3182 4870,3187 L 4870,3175 C 4870,3162 4866,3154 4858,3151 4850,3147 4840,3145 4828,3145 4817,3145 4806,3146 4796,3148 4787,3151 4777,3153 4767,3156 L 4782,3095 C 4794,3092 4807,3089 4820,3088 4834,3086 4847,3086 4861,3086 4874,3086 4886,3087 4898,3090 4910,3093 4921,3098 4930,3104 4939,3111 4946,3120 4952,3130 4957,3141 4960,3154 4959,3170 L 4955,3316 4878,3322 4878,3296 Z M 4878,3296 L 4878,3296 Z M 4829,3225 C 4820,3226 4813,3229 4807,3234 4802,3239 4799,3244 4800,3250 4801,3256 4805,3260 4811,3263 4817,3266 4825,3267 4835,3265 4845,3264 4853,3260 4858,3256 4863,3251 4864,3245 4863,3240 4863,3235 4859,3231 4854,3227 4848,3224 4840,3223 4829,3225 Z M 4829,3225 L 4829,3225 Z M 4992,3020 C 5038,3011 5072,3005 5095,3003 5117,3000 5128,2999 5128,2999 5149,2995 5169,2996 5185,3001 5202,3006 5216,3014 5228,3025 5239,3036 5248,3050 5254,3065 5260,3081 5264,3098 5265,3117 5265,3135 5263,3154 5259,3174 5254,3193 5246,3212 5236,3230 5225,3248 5211,3265 5195,3281 5178,3296 5159,3309 5136,3320 5136,3320 5134,3321 5129,3322 5125,3323 5117,3325 5107,3326 5096,3327 5082,3327 5064,3327 5046,3327 5024,3325 4998,3322 L 4992,3020 Z M 4992,3020 L 4992,3020 Z M 5091,3234 C 5106,3231 5117,3226 5127,3219 5136,3212 5143,3205 5147,3198 5152,3191 5155,3183 5157,3176 5159,3169 5160,3162 5160,3158 5160,3154 5160,3152 5160,3151 5160,3151 5159,3148 5159,3144 5158,3139 5156,3134 5154,3128 5151,3122 5148,3117 5143,3113 5138,3109 5132,3107 5124,3108 5116,3109 5106,3114 5095,3123 L 5091,3234 Z M 5091,3234 L 5091,3234 Z M 5472,3294 C 5456,3305 5440,3313 5424,3318 5408,3323 5389,3326 5367,3326 5350,3326 5334,3323 5319,3317 5305,3311 5292,3302 5282,3292 5271,3282 5263,3270 5257,3256 5251,3242 5248,3228 5248,3212 5248,3193 5251,3176 5258,3160 5264,3145 5272,3132 5283,3121 5293,3111 5305,3103 5319,3097 5333,3092 5348,3089 5364,3089 5390,3089 5412,3096 5431,3109 5450,3122 5464,3139 5473,3161 L 5358,3249 C 5361,3250 5365,3251 5369,3252 5374,3252 5378,3252 5382,3252 5394,3252 5404,3250 5412,3246 5420,3242 5427,3237 5434,3231 L 5472,3294 Z M 5472,3294 L 5472,3294 Z M 5390,3167 C 5386,3162 5382,3159 5378,3158 5374,3156 5369,3155 5364,3155 5358,3155 5354,3156 5349,3158 5345,3161 5342,3165 5338,3168 5335,3172 5333,3176 5331,3181 5330,3185 5329,3190 5329,3195 5329,3200 5329,3203 5330,3205 5330,3207 5331,3209 5332,3211 L 5390,3167 Z M 5390,3167 L 5390,3167 Z M 5734,3077 L 5626,3178 5721,3258 5667,3339 5593,3268 5592,3317 5491,3329 5485,3018 5598,3005 5596,3074 5658,2989 5734,3077 Z M 5734,3077 L 5734,3077 Z M 5958,3190 C 5960,3207 5959,3224 5955,3239 5951,3254 5944,3268 5935,3280 5925,3291 5914,3301 5900,3308 5886,3316 5870,3321 5853,3323 5836,3326 5819,3325 5804,3322 5788,3318 5774,3312 5762,3304 5749,3295 5739,3284 5731,3271 5723,3257 5717,3242 5715,3224 5712,3206 5713,3190 5718,3174 5722,3158 5729,3145 5738,3133 5747,3121 5759,3111 5773,3104 5787,3096 5803,3091 5820,3089 5837,3087 5853,3087 5869,3091 5884,3094 5898,3100 5911,3108 5923,3117 5933,3128 5941,3142 5950,3155 5955,3172 5958,3190 Z M 5958,3190 L 5958,3190 Z M 5796,3222 C 5800,3232 5807,3239 5817,3242 5826,3245 5837,3244 5849,3239 5861,3234 5869,3227 5873,3218 5878,3209 5878,3200 5874,3190 5870,3180 5863,3173 5853,3170 5844,3167 5833,3168 5821,3173 5809,3178 5801,3185 5796,3194 5792,3203 5792,3213 5796,3222 Z M 5796,3222 L 5796,3222 Z M 6047,3123 L 6049,3123 C 6057,3112 6066,3104 6075,3100 6083,3096 6093,3094 6104,3094 6114,3094 6124,3096 6132,3099 6140,3103 6147,3109 6153,3116 6159,3122 6163,3131 6166,3140 6169,3149 6170,3159 6170,3171 L 6170,3320 6087,3327 6088,3187 C 6089,3182 6087,3178 6083,3175 6079,3172 6075,3170 6070,3170 6065,3170 6060,3172 6057,3175 6053,3178 6051,3182 6051,3187 L 6052,3326 5969,3320 5966,3100 6047,3094 6047,3123 Z M 6047,3123 L 6047,3123 Z M 6424,3190 C 6426,3207 6425,3224 6421,3239 6417,3254 6410,3268 6401,3280 6391,3291 6380,3301 6366,3308 6352,3316 6336,3321 6319,3323 6302,3326 6285,3325 6270,3322 6254,3318 6240,3312 6228,3304 6215,3295 6205,3284 6197,3271 6189,3257 6183,3242 6181,3224 6178,3206 6179,3190 6184,3174 6188,3158 6195,3145 6204,3133 6213,3121 6225,3111 6239,3104 6253,3096 6269,3091 6286,3089 6303,3087 6319,3087 6335,3091 6350,3094 6364,3100 6377,3108 6389,3117 6399,3128 6407,3142 6416,3155 6421,3172 6424,3190 Z M 6424,3190 L 6424,3190 Z M 6262,3222 C 6266,3232 6273,3239 6283,3242 6292,3245 6303,3244 6315,3239 6327,3234 6335,3227 6339,3218 6344,3209 6344,3200 6340,3190 6336,3180 6329,3173 6319,3170 6310,3167 6299,3168 6287,3173 6275,3178 6267,3185 6262,3194 6258,3203 6258,3213 6262,3222 Z M 6262,3222 L 6262,3222 Z M 6517,3116 L 6518,3116 C 6524,3107 6531,3101 6540,3097 6548,3094 6558,3092 6568,3092 6579,3092 6589,3094 6597,3097 6605,3101 6612,3107 6618,3114 6624,3121 6628,3129 6631,3138 6634,3147 6635,3158 6635,3169 L 6633,3318 6551,3325 6551,3185 C 6551,3180 6550,3177 6547,3174 6544,3170 6540,3169 6534,3169 6530,3169 6525,3170 6522,3173 6518,3176 6517,3180 6517,3185 L 6517,3326 6436,3319 6433,3014 6519,3007 6517,3116 Z M 6517,3116 L 6517,3116 Z M 6782,3296 L 6781,3296 C 6774,3306 6765,3312 6754,3316 6744,3320 6732,3322 6720,3322 6710,3322 6700,3320 6691,3317 6682,3313 6673,3307 6667,3301 6660,3294 6654,3285 6650,3276 6646,3266 6644,3255 6644,3243 6644,3232 6646,3223 6650,3214 6654,3205 6660,3197 6667,3191 6674,3184 6682,3179 6692,3175 6701,3172 6712,3170 6723,3170 6735,3170 6745,3171 6753,3175 6761,3178 6768,3182 6774,3187 L 6774,3175 C 6774,3162 6770,3154 6762,3151 6754,3147 6744,3145 6732,3145 6721,3145 6710,3146 6700,3148 6691,3151 6681,3153 6671,3156 L 6686,3095 C 6698,3092 6711,3089 6724,3088 6738,3086 6751,3086 6765,3086 6778,3086 6790,3087 6802,3090 6814,3093 6825,3098 6834,3104 6843,3111 6850,3120 6856,3130 6861,3141 6863,3154 6863,3170 L 6859,3316 6782,3322 6782,3296 Z M 6782,3296 L 6782,3296 Z M 6733,3225 C 6724,3226 6717,3229 6711,3234 6706,3239 6703,3244 6704,3250 6705,3256 6709,3260 6715,3263 6721,3266 6729,3267 6739,3265 6749,3264 6757,3260 6762,3256 6766,3251 6768,3245 6767,3240 6767,3235 6763,3231 6758,3227 6752,3224 6744,3223 6733,3225 Z"/>
     </g>
    </g>
   </g>
  </g>
 </g>
</svg>
